<svg width="30" height="22" viewBox="0 0 30 22" fill="none" xmlns="http://www.w3.org/2000/svg">
<g clip-path="url(#clip0_134_898)">
<path d="M21.2565 17.5396C14.4221 16.775 -0.151323 19.9541 -5.21074e-05 20.1778C-5.21074e-05 20.1778 14.6974 21.9577 21.8737 22C31.2918 22.0544 34.2658 18.9962 21.2535 17.5396H21.2565Z" fill="#7D7D7D"/>
<path d="M21.2565 0.117873C14.4221 -0.646688 -0.151323 2.53243 -5.21074e-05 2.75606C-5.21074e-05 2.75606 14.6974 4.536 21.8767 4.57831C31.2948 4.63271 34.2688 1.57447 21.2565 0.117873Z" fill="#7D7D7D"/>
<path d="M8.74342 8.83022C15.5778 8.06566 30.1513 11.2448 30 11.4654C30 11.4654 15.3025 13.2453 8.12624 13.2876C-1.29187 13.342 -4.26585 10.2838 8.74645 8.8272L8.74342 8.83022Z" fill="#7D7D7D"/>
</g>
<defs>
<clipPath id="clip0_134_898">
<rect width="30" height="22" fill="white"/>
</clipPath>
</defs>
</svg>
