<svg width="28" height="27" viewBox="0 0 28 27" fill="none" xmlns="http://www.w3.org/2000/svg">
<g clip-path="url(#clip0_199_44)">
<path d="M21.3794 25.069C26.2332 26.8294 30.2328 20.6577 26.5804 16.997C25.1372 15.5504 23.2208 15.141 20.7905 17.5394C17.6283 20.6611 18.0538 23.8613 21.3794 25.0656V25.069Z" fill="#D7DEBD"/>
<path d="M7.26732 0.119432C2.21942 -0.975716 -0.922327 5.67364 3.1793 8.81238C4.80293 10.0542 6.75334 10.2043 8.8467 7.5023C11.5698 3.98827 10.7222 0.873412 7.26732 0.119432Z" fill="#D7DEBD"/>
<path d="M16.7843 6.92573C10.0447 11.9375 -0.31321 26.9318 0.00675125 27C0.00675125 27 14.6058 16.3454 21.0459 10.4022C29.4976 2.60313 29.6032 -2.61332 16.7809 6.92573H16.7843Z" fill="#D7DEBD"/>
</g>
<defs>
<clipPath id="clip0_199_44">
<rect width="28" height="27" fill="white"/>
</clipPath>
</defs>
</svg>
