<svg width="30" height="22" viewBox="0 0 30 22" fill="none" xmlns="http://www.w3.org/2000/svg">
<g clip-path="url(#clip0_127_31)">
<path d="M21.2565 17.5396C14.4221 16.775 -0.151323 19.9541 -5.21074e-05 20.1778C-5.21074e-05 20.1778 14.6974 21.9577 21.8737 22C31.2918 22.0544 34.2658 18.9962 21.2535 17.5396H21.2565Z" fill="#D7DEBD"/>
<path d="M21.2565 0.117934C14.4221 -0.646627 -0.151323 2.53249 -5.21074e-05 2.75612C-5.21074e-05 2.75612 14.6974 4.53607 21.8767 4.57837C31.2948 4.63277 34.2688 1.57453 21.2565 0.117934Z" fill="#D7DEBD"/>
<path d="M8.74342 8.83034C15.5778 8.06578 30.1513 11.2449 30 11.4655C30 11.4655 15.3025 13.2455 8.12624 13.2878C-1.29187 13.3422 -4.26585 10.2839 8.74645 8.82732L8.74342 8.83034Z" fill="#D7DEBD"/>
</g>
<defs>
<clipPath id="clip0_127_31">
<rect width="30" height="22" fill="white"/>
</clipPath>
</defs>
</svg>
