<svg width="300" height="442" viewBox="0 0 300 442" fill="none" xmlns="http://www.w3.org/2000/svg">
<g clip-path="url(#clip0_212_159)">
<path d="M295.124 158.519C292.885 146.065 290.007 133.611 284.751 121.758C280.794 112.848 276.797 104.919 266.824 99.4725C257.511 94.3668 243.701 92.7649 232.969 95.0675C213.404 99.2723 200.493 118.314 193.678 133.051C187.263 146.926 186.403 162.724 186.503 177.441C186.623 193.118 188.882 208.916 193.059 224.194C193.178 224.754 193.338 225.335 193.518 225.896C193.658 226.376 193.818 226.857 193.998 227.317C197.915 238.67 205.829 249.302 218.5 255.289C231.39 261.376 246.359 261.195 259.73 256.53C287.409 246.879 298.581 222.492 299.9 199.305C300.66 185.67 297.562 171.935 295.144 158.499L295.124 158.519Z" fill="#ACB48F"/>
<path d="M274.339 134.312C274.339 134.312 248.038 133.071 231.59 127.144C208.048 118.654 212.324 150.911 239.564 143.602L274.319 134.292L274.339 134.312Z" fill="black"/>
<path d="M270.402 143.502C270.402 143.502 274.759 173.016 271.081 187.712C266.764 204.952 256.812 201.007 258.51 187.933C260.629 171.734 270.402 143.502 270.402 143.502Z" fill="black"/>
<path d="M255.672 146.666C261.468 151.071 256.872 160.962 253.874 161.783C253.054 154.835 245.42 149.549 241.203 154.895C238.965 157.718 239.604 162.143 243.821 165.327C247.618 168.19 251.975 170.613 253.614 174.978C256.332 182.206 254.114 195.221 245.1 197.263C240.663 198.264 231.67 196.522 226.134 192.137C218.999 186.511 215.382 177.981 216.281 169.692C217.041 162.604 222.717 154.615 229.492 152.973C244.541 149.329 245.82 149.009 255.672 146.686V146.666Z" fill="black"/>
<path d="M272.021 212.841C272.021 212.841 260.809 234.946 239.724 234.946C228.512 234.946 211.785 227.137 216.261 217.246C217.561 214.383 222.977 212.841 230.571 212.841H272.021Z" fill="black"/>
<path d="M249.637 202.409C249.637 202.409 258.071 204.591 256.592 208.336C255.373 211.439 251.196 211.179 251.196 211.179L244.041 207.154C244.041 207.154 239.365 211.019 235.887 209.837C226.854 206.734 237.046 201.568 237.046 201.568L244.921 205.773L249.637 202.429V202.409Z" fill="black"/>
<path d="M227.254 345.291V347.113C226.754 347.313 226.174 347.493 225.515 347.693C224.855 347.894 224.076 347.974 223.157 347.974C222.237 347.974 221.358 347.874 220.639 347.653C219.919 347.433 219.319 347.053 218.84 346.532C218.36 346.011 217.98 345.291 217.761 344.35C217.521 343.428 217.401 342.267 217.401 340.886C217.401 339.144 217.641 337.762 218.12 336.721C218.6 335.68 219.319 334.939 220.259 334.498C221.198 334.038 222.357 333.818 223.736 333.818C224.316 333.818 224.855 333.818 225.415 333.858C225.955 333.878 226.474 333.938 226.954 334.018V335.82C226.414 335.76 225.875 335.72 225.375 335.7C224.855 335.68 224.316 335.66 223.736 335.66C222.757 335.66 221.958 335.8 221.338 336.1C220.718 336.401 220.259 336.921 219.959 337.662C219.659 338.423 219.519 339.484 219.519 340.886C219.519 342.287 219.659 343.388 219.919 344.129C220.199 344.87 220.619 345.371 221.218 345.651C221.818 345.931 222.577 346.071 223.536 346.071C224.156 346.071 224.795 346.011 225.455 345.871C226.134 345.731 226.734 345.551 227.274 345.311L227.254 345.291Z" fill="#ACB48F"/>
<path d="M230.151 347.793L235.547 334.038H237.086C236.986 334.458 236.866 334.919 236.707 335.399C236.567 335.88 236.407 336.361 236.267 336.861C236.127 337.362 235.967 337.802 235.827 338.223C235.687 338.643 235.547 339.004 235.427 339.304L232.29 347.793H230.151ZM232.729 344.59V342.828H240.224V344.59H232.729ZM242.962 347.793H240.824L237.686 339.304C237.566 339.004 237.446 338.643 237.286 338.223C237.146 337.802 236.986 337.362 236.846 336.881C236.687 336.401 236.547 335.92 236.407 335.439C236.267 334.959 236.127 334.478 236.027 334.038H237.646L242.962 347.793Z" fill="#ACB48F"/>
<path d="M248.878 347.793H246.839V334.038H255.713V335.88H248.878V340.425H254.893V342.227H248.878V347.793Z" fill="#ACB48F"/>
<path d="M269.083 347.793H259.93V334.038H268.883V335.88H261.968V339.885H268.084V341.687H261.968V345.871H269.083V347.793Z" fill="#ACB48F"/>
<path d="M231.431 316.158L222.177 288.106C221.698 286.304 219.919 285.263 218.22 285.263C216.302 285.263 213.184 285.583 211.225 286.224L200.513 314.576C198.954 318.42 200.313 320.442 202.732 320.442H207.788C206.649 319.201 206.209 317.279 207.048 314.776C208.547 310.111 213.504 308.429 217.301 309.911C220.618 311.212 222.437 313.294 223.077 315.917L223.656 317.92C224.096 319.421 225.455 320.463 227.034 320.463H232.989C232.63 319.762 231.61 316.738 231.45 316.198L231.431 316.158ZM220.079 305.986C219.16 305.466 218.14 305.185 217.081 305.085C212.764 304.645 210.046 306.727 210.046 306.727L215.622 292.191L220.578 306.266L220.099 305.986H220.079Z" fill="black"/>
<path d="M255.553 292.491L245.84 305.606V313.354C245.84 315.377 246 317.019 246.839 319.261C246.26 319.842 244.761 320.803 242.862 320.803C240.584 320.803 237.966 319.561 237.966 315.977V304.985C236.747 302.983 227.194 288.546 225.975 287.385C226.674 286.684 229.172 285.283 231.61 285.283C234.229 285.283 236.387 287.025 237.526 289.147L243.222 299.138L248.358 290.689C249.597 288.727 249.078 286.524 248.658 286.104C255.633 283.961 257.152 286.664 257.192 288.266C257.192 289.387 256.452 291.089 255.553 292.531V292.491Z" fill="black"/>
<path d="M286.39 294.653C284.591 292.911 281.174 291.41 277.736 291.41L277.796 313.975C277.796 315.997 277.796 317.419 278.796 319.241C278.156 319.822 276.717 320.783 274.759 320.783C272.48 320.783 270.782 319.061 270.782 317.019V291.41C267.444 291.41 264.106 293.031 262.128 294.653C260.269 293.812 259.33 285.243 262.468 285.243H286.03C288.908 285.243 288.309 293.792 286.39 294.653Z" fill="black"/>
<path d="M108.64 158.519C106.402 146.065 103.524 133.611 98.2679 121.758C94.3108 112.848 90.3137 104.919 80.341 99.4725C71.0278 94.3668 57.218 92.7649 46.4858 95.0675C26.9202 99.2723 14.0097 118.314 7.19465 133.051C0.759372 146.926 -0.0999977 162.724 -7.09915e-05 177.461C0.119841 193.138 2.37819 208.936 6.55512 224.214C6.67503 224.774 6.83492 225.355 7.01478 225.916C7.15468 226.396 7.31456 226.877 7.49443 227.337C11.4116 238.69 19.3258 249.322 31.9965 255.309C44.887 261.396 59.856 261.215 73.2262 256.55C100.906 246.899 112.078 222.512 113.397 199.325C114.156 185.69 111.058 171.955 108.64 158.519Z" fill="#A8A7A7"/>
<path d="M87.8555 134.312C87.8555 134.312 61.5548 133.071 45.1069 127.144C21.5642 118.654 25.841 150.911 53.081 143.602L87.8356 134.292L87.8555 134.312Z" fill="black"/>
<path d="M83.9183 143.502C83.9183 143.502 88.2751 173.016 84.5978 187.712C80.281 204.952 70.3283 201.007 72.027 187.933C74.1455 171.734 83.9183 143.502 83.9183 143.502Z" fill="black"/>
<path d="M69.189 146.666C74.9848 151.071 70.3881 160.962 67.3903 161.783C66.5709 154.835 58.9365 149.549 54.7196 154.895C52.4813 157.718 53.1208 162.143 57.3377 165.327C61.1349 168.19 65.4917 170.613 67.1305 174.978C69.8485 182.206 67.6302 195.221 58.6168 197.263C54.18 198.264 45.1866 196.522 39.6507 192.137C32.5159 186.511 28.8986 177.981 29.7979 169.692C30.5573 162.604 36.2332 154.615 43.0082 152.973C58.0572 149.329 59.3362 149.009 69.189 146.686V146.666Z" fill="black"/>
<path d="M85.5372 212.841C85.5372 212.841 74.3254 234.946 53.2409 234.946C42.0291 234.946 25.3014 227.137 29.7781 217.246C31.0771 214.382 36.4932 212.841 44.0876 212.841H85.5372Z" fill="black"/>
<path d="M63.1537 202.409C63.1537 202.409 71.5876 204.591 70.1086 208.336C68.8895 211.439 64.7126 211.179 64.7126 211.179L57.5578 207.154C57.5578 207.154 52.8813 211.019 49.4038 209.837C40.3704 206.734 50.563 201.568 50.563 201.568L58.4372 205.773L63.1537 202.429V202.409Z" fill="black"/>
<path d="M25.7611 341.306C25.2215 341.166 24.7618 340.986 24.3621 340.745C23.9624 340.505 23.6626 340.145 23.4428 339.684C23.2229 339.224 23.123 338.643 23.123 337.922C23.123 336.521 23.5227 335.48 24.3021 334.799C25.0816 334.118 26.3407 333.798 28.0794 333.798C28.9188 333.798 29.5983 333.838 30.1579 333.898C30.6975 333.978 31.1771 334.058 31.5568 334.178V336.02C31.1771 335.94 30.6975 335.84 30.1379 335.76C29.5783 335.68 28.8788 335.62 28.0594 335.62C26.9802 335.62 26.2207 335.78 25.801 336.12C25.3814 336.441 25.1615 337.001 25.1615 337.782C25.1615 338.243 25.2614 338.623 25.4413 338.883C25.6212 339.144 25.9609 339.324 26.4206 339.424L29.6582 340.185C30.2978 340.345 30.8374 340.545 31.277 340.765C31.7167 340.986 32.0365 341.326 32.2563 341.807C32.4762 342.267 32.5761 342.908 32.5761 343.749C32.5761 344.329 32.5161 344.87 32.3962 345.371C32.2763 345.891 32.0365 346.332 31.6967 346.712C31.357 347.093 30.8573 347.393 30.1978 347.613C29.5383 347.833 28.6989 347.934 27.6397 347.934C26.9402 347.934 26.3007 347.894 25.7011 347.833C25.1016 347.773 24.6019 347.693 24.1623 347.593C23.7226 347.493 23.3828 347.413 23.103 347.313V345.391C23.5627 345.531 24.1822 345.671 24.9617 345.811C25.7411 345.951 26.6404 346.031 27.6397 346.031C28.4391 346.031 29.0387 345.951 29.4384 345.771C29.8381 345.611 30.1179 345.351 30.2578 345.03C30.3977 344.71 30.4576 344.289 30.4576 343.809C30.4576 343.429 30.4177 343.128 30.3177 342.908C30.2178 342.688 30.0779 342.507 29.8781 342.387C29.6782 342.247 29.3984 342.147 29.0187 342.067L25.7611 341.306Z" fill="#A8A7A7"/>
<path d="M46.4461 335.86H41.9893V347.773H39.9309V335.86H35.4741V334.018H46.4261V335.86H46.4461Z" fill="#A8A7A7"/>
<path d="M55.5993 347.954C54.4601 347.954 53.5008 347.833 52.7014 347.613C51.922 347.393 51.2825 347.013 50.8028 346.472C50.3232 345.931 49.9634 345.211 49.7436 344.289C49.5238 343.368 49.4238 342.227 49.4238 340.846C49.4238 339.144 49.6437 337.782 50.0833 336.741C50.523 335.7 51.2025 334.939 52.1019 334.478C53.0212 334.018 54.1803 333.778 55.5993 333.778C56.7185 333.778 57.6778 333.898 58.4772 334.118C59.2566 334.338 59.8961 334.739 60.3758 335.279C60.8554 335.82 61.1952 336.541 61.435 337.462C61.6549 338.383 61.7748 339.504 61.7748 340.846C61.7748 342.548 61.5549 343.909 61.1153 344.97C60.6756 346.011 59.9961 346.772 59.0967 347.233C58.1974 347.693 57.0382 347.934 55.6193 347.934L55.5993 347.954ZM55.5993 346.051C56.5786 346.051 57.358 345.911 57.9576 345.631C58.5571 345.351 58.9968 344.83 59.2566 344.069C59.5364 343.308 59.6563 342.247 59.6563 340.866C59.6563 339.744 59.5964 338.863 59.4565 338.163C59.3166 337.482 59.0967 336.941 58.777 336.581C58.4572 336.22 58.0375 335.96 57.5179 335.84C56.9983 335.7 56.3587 335.64 55.5993 335.64C54.62 335.64 53.8206 335.78 53.221 336.06C52.6215 336.34 52.1818 336.861 51.902 337.622C51.6222 338.383 51.4823 339.464 51.4823 340.866C51.4823 341.967 51.5623 342.848 51.7022 343.529C51.8421 344.209 52.0819 344.73 52.4016 345.09C52.7214 345.451 53.1411 345.691 53.6607 345.831C54.1803 345.971 54.8399 346.031 55.6193 346.031L55.5993 346.051Z" fill="#A8A7A7"/>
<path d="M68.4096 347.793H66.3711V334.038H68.4096V347.793ZM71.1476 342.908H67.7301V341.126H71.0876C72.2268 341.126 73.0862 340.926 73.6458 340.525C74.2053 340.125 74.5051 339.404 74.5051 338.363C74.5051 337.442 74.2253 336.801 73.6857 336.421C73.1461 336.04 72.2668 335.86 71.0876 335.86H67.7301V334.018H71.0876C72.3667 334.018 73.4259 334.158 74.2253 334.438C75.0447 334.719 75.6243 335.179 76.004 335.82C76.3837 336.461 76.5636 337.302 76.5636 338.363C76.5636 339.965 76.104 341.106 75.1846 341.827C74.2653 342.548 72.9263 342.908 71.1476 342.908ZM70.9477 342.487H73.2461L76.9433 347.773H74.4851L70.9278 342.487H70.9477Z" fill="#A8A7A7"/>
<path d="M90.4135 347.793H81.2603V334.038H90.2137V335.88H83.2988V339.885H89.4143V341.687H83.2988V345.871H90.4135V347.793Z" fill="#A8A7A7"/>
<path d="M44.2674 316.158L35.0142 288.106C34.5346 286.304 32.7559 285.263 31.0571 285.263C29.1385 285.263 26.0208 285.583 24.0622 286.224L13.3501 314.576C11.7912 318.42 13.1502 320.442 15.5685 320.442H20.6248C19.4856 319.201 19.0459 317.279 19.8853 314.776C21.3842 310.111 26.3406 308.429 30.1378 309.911C33.4554 311.212 35.274 313.294 35.9135 315.917L36.4931 317.92C36.9328 319.421 38.2918 320.463 39.8706 320.463H45.8263C45.4665 319.762 44.4473 316.738 44.2874 316.198L44.2674 316.158ZM32.9157 305.986C31.9964 305.466 30.9772 305.185 29.9179 305.085C25.6011 304.645 22.8831 306.727 22.8831 306.727L28.459 292.191L33.4154 306.266L32.9357 305.986H32.9157Z" fill="black"/>
<path d="M68.3898 292.491L58.677 305.606V313.354C58.677 315.377 58.8368 317.019 59.6762 319.261C59.0966 319.842 57.5977 320.803 55.6991 320.803C53.4208 320.803 50.8027 319.561 50.8027 315.977V304.985C49.5836 302.983 40.0306 288.546 38.8115 287.385C39.511 286.684 42.0092 285.283 44.4474 285.283C47.0655 285.283 49.2239 287.025 50.3631 289.147L56.0589 299.138L61.1951 290.689C62.4342 288.727 61.9146 286.524 61.4949 286.104C68.4698 283.961 69.9887 286.664 70.0286 288.266C70.0286 289.387 69.2892 291.089 68.3898 292.531V292.491Z" fill="black"/>
<path d="M99.227 294.653C97.4283 292.911 94.0108 291.41 90.5734 291.41L90.6333 313.975C90.6333 315.997 90.6333 317.419 91.6326 319.241C90.993 319.822 89.5541 320.783 87.5955 320.783C85.3172 320.783 83.6185 319.061 83.6185 317.019V291.41C80.2809 291.41 76.9434 293.031 74.9648 294.653C73.1062 293.812 72.1669 285.243 75.3046 285.243H98.8673C101.745 285.243 101.146 293.792 99.227 294.653Z" fill="black"/>
<path d="M55.5791 74.9047V44.7306H245.3V74.9047" stroke="black" stroke-width="0.46" stroke-miterlimit="10"/>
<path d="M150.45 44.7306V0" stroke="black" stroke-width="0.46" stroke-miterlimit="10"/>
<path d="M55.5791 367.095V397.269H245.3V367.095" stroke="black" stroke-width="0.46" stroke-miterlimit="10"/>
<path d="M150.45 397.269V442" stroke="black" stroke-width="0.46" stroke-miterlimit="10"/>
</g>
<defs>
<clipPath id="clip0_212_159">
<rect width="300" height="442" fill="white"/>
</clipPath>
</defs>
</svg>
