<svg width="164" height="368" viewBox="0 0 164 368" fill="none" xmlns="http://www.w3.org/2000/svg">
<g clip-path="url(#clip0_136_998)">
<path d="M67.1345 1.49357C82.6568 -1.85155 102.61 0.479499 116.063 7.86759C130.456 15.7768 136.247 27.2499 141.955 40.1742C149.542 57.3557 153.704 75.398 156.949 93.4447L156.94 93.4496C160.445 112.925 164.935 132.828 163.824 152.591C161.935 186.201 145.774 221.554 105.79 235.539C86.4761 242.295 64.8338 242.555 46.2146 233.725C27.9242 225.048 16.4939 209.644 10.823 193.193C10.5638 192.514 10.3238 191.825 10.1248 191.127C9.86552 190.299 9.65661 189.48 9.47144 188.657C3.43022 166.488 0.171591 143.598 0.00952148 120.885C-0.138618 99.5491 1.09708 76.64 10.365 56.5414C20.2116 35.2007 38.854 7.58851 67.1345 1.49357Z" fill="#ACB48F"/>
<path d="M126.947 58.3651C126.947 58.3651 88.9534 56.5785 65.1908 47.9901C31.1788 35.6983 37.3498 82.4508 76.7226 71.8432L126.947 58.3604V58.3651Z" fill="black"/>
<path d="M121.239 71.685C121.239 71.685 127.534 114.455 122.22 135.763C115.984 160.761 101.61 155.025 104.073 136.089C107.119 112.627 121.243 71.685 121.243 71.685H121.239Z" fill="black"/>
<path d="M99.9574 76.2584C108.341 82.6323 101.675 96.9851 97.3649 98.1761C96.1844 88.1222 85.1434 80.4596 79.0604 88.178C75.8291 92.2815 76.7503 98.6693 82.8472 103.294C88.3376 107.453 94.6151 110.956 96.9853 117.265C100.92 127.733 97.6982 146.613 84.6897 149.567C78.2688 151.023 65.288 148.483 57.2792 142.142C46.9835 133.986 41.7477 121.611 43.0346 109.598C44.1364 99.3253 52.3443 87.7407 62.1169 85.3633C83.8471 80.0781 85.6943 79.6035 99.9574 76.2584Z" fill="black"/>
<path d="M123.586 172.183C123.586 172.183 107.397 204.22 76.9215 204.22C60.7234 204.22 36.5488 192.914 43.0114 178.566C44.8817 174.411 52.7146 172.183 63.7001 172.183H123.586Z" fill="black"/>
<path d="M91.2401 157.067C91.2401 157.067 103.429 160.231 101.3 165.66C99.536 170.159 93.49 169.787 93.49 169.787L83.148 163.948C83.148 163.948 76.3938 169.559 71.3802 167.828C58.33 163.325 73.0606 155.834 73.0606 155.834L84.4257 161.919L91.2401 157.067Z" fill="black"/>
<path d="M58.9086 350.001V352.639C58.1911 352.913 57.3578 353.193 56.4088 353.467C55.4598 353.741 54.3209 353.881 52.9923 353.881C51.6637 353.881 50.386 353.723 49.3536 353.402C48.3213 353.085 47.4463 352.541 46.7427 351.778C46.0344 351.015 45.5113 349.964 45.1779 348.628C44.84 347.293 44.6733 345.618 44.6733 343.604C44.6733 341.082 45.0205 339.072 45.7196 337.574C46.414 336.081 47.4463 335.001 48.8074 334.345C50.1684 333.689 51.8396 333.359 53.8256 333.359C54.6496 333.359 55.4551 333.382 56.2468 333.424C57.0384 333.466 57.7837 333.541 58.4781 333.648V336.258C57.6958 336.174 56.9319 336.113 56.1819 336.081C55.432 336.048 54.645 336.034 53.8256 336.034C52.4136 336.034 51.2563 336.248 50.3582 336.672C49.4601 337.095 48.7981 337.853 48.3629 338.947C47.9324 340.04 47.7148 341.594 47.7148 343.608C47.7148 345.623 47.9093 347.228 48.2981 348.303C48.687 349.373 49.312 350.113 50.1638 350.513C51.0202 350.917 52.1313 351.117 53.5015 351.117C54.3904 351.117 55.3163 351.015 56.2884 350.815C57.2606 350.615 58.1355 350.345 58.9179 350.006L58.9086 350.001Z" fill="#ACB48F"/>
<path d="M63.0889 353.625L70.8755 333.68H73.0929C72.9448 334.294 72.7642 334.955 72.5559 335.653C72.343 336.351 72.1347 337.058 71.9217 337.77C71.7088 338.481 71.5004 339.137 71.2875 339.742C71.0745 340.347 70.8847 340.873 70.7181 341.315L66.1905 353.625H63.0889ZM66.8201 348.982V346.437H77.6482V348.982H66.8201ZM81.6063 353.625H78.5047L73.9771 341.315C73.8059 340.868 73.6161 340.347 73.4077 339.742C73.1948 339.137 72.9818 338.491 72.7596 337.802C72.5374 337.114 72.3198 336.416 72.1115 335.704C71.8986 334.992 71.7226 334.322 71.5745 333.685H73.917L81.611 353.63L81.6063 353.625Z" fill="#ACB48F"/>
<path d="M90.1523 353.625H87.208V333.68H100.027V336.351H90.1523V342.934H98.8555V345.544H90.1523V353.625Z" fill="#ACB48F"/>
<path d="M119.336 353.625H106.105V333.68H119.053V336.351H109.049V342.143H117.882V344.753H109.049V350.829H119.336V353.63V353.625Z" fill="#ACB48F"/>
<path d="M64.9315 307.789L51.548 267.136C50.8583 264.517 48.2843 263.005 45.8308 263.005C43.0717 263.005 38.5627 263.465 35.7249 264.391L20.2535 305.468C17.9944 311.046 19.9757 313.968 23.4709 313.968H30.7853C29.1326 312.153 28.4938 309.371 29.7021 305.765C31.8593 299.015 39.021 296.563 44.5068 298.703C49.3074 300.578 51.9184 303.616 52.8535 307.403L53.6868 310.292C54.3164 312.47 56.2978 313.968 58.5523 313.968H67.149C66.6166 312.953 65.1538 308.562 64.9269 307.789H64.9315ZM48.5389 293.041C47.2057 292.287 45.7382 291.878 44.2105 291.724C37.9608 291.082 34.0351 294.102 34.0351 294.102L42.0856 273.026L49.2334 293.436L48.5389 293.041Z" fill="black"/>
<path d="M99.7998 273.487L85.7636 292.501V303.723C85.7636 306.654 85.9951 309.032 87.2219 312.27C86.3793 313.116 84.2313 314.503 81.4675 314.503C78.1714 314.503 74.3939 312.698 74.3939 307.515V291.59C72.6486 288.696 58.8207 267.778 57.0569 266.085C58.0522 265.084 61.6816 263.037 65.2138 263.037C68.9868 263.037 72.1023 265.55 73.7689 268.63L81.9953 283.108L89.4208 270.849C91.2077 267.992 90.4578 264.81 89.8421 264.191C99.911 261.083 102.101 265.005 102.179 267.318C102.179 268.937 101.105 271.403 99.7998 273.487Z" fill="black"/>
<path d="M144.33 276.627C141.742 274.096 136.789 271.923 131.826 271.923L131.905 304.63C131.905 307.561 131.877 309.618 133.363 312.265C132.442 313.112 130.372 314.498 127.535 314.498C124.238 314.498 121.78 312 121.78 309.041V271.919C116.97 271.919 112.137 274.278 109.276 276.622C106.591 275.389 105.239 263 109.772 263H143.807C147.978 263 147.089 275.389 144.33 276.622V276.627Z" fill="black"/>
</g>
<defs>
<clipPath id="clip0_136_998">
<rect width="164" height="368" fill="white"/>
</clipPath>
</defs>
</svg>
