<svg width="85" height="64" viewBox="0 0 85 64" fill="none" xmlns="http://www.w3.org/2000/svg">
<g clip-path="url(#clip0_212_236)">
<path d="M3.846 55.7645C3.17255 55.6016 2.58868 55.3711 2.0975 55.0731C1.60631 54.775 1.22325 54.3386 0.951394 53.7701C0.679542 53.1986 0.540527 52.4703 0.540527 51.5822C0.540527 49.8429 1.03171 48.5584 2.01718 47.7226C2.99955 46.8898 4.56579 46.4719 6.71589 46.4719C7.75387 46.4719 8.61576 46.518 9.29848 46.6071C9.9812 46.6993 10.5589 46.8161 11.0346 46.9605V49.2437C10.562 49.1362 9.96884 49.0255 9.25832 48.918C8.5478 48.8104 7.68281 48.7551 6.66337 48.7551C5.31647 48.7551 4.37734 48.9579 3.84909 49.3666C3.32083 49.7753 3.05824 50.4575 3.05824 51.4194C3.05824 52.0001 3.17564 52.4519 3.41351 52.7776C3.65138 53.1033 4.05915 53.3307 4.64302 53.4567L8.68681 54.4062C9.48692 54.606 10.1635 54.8457 10.7072 55.1253C11.254 55.4049 11.6617 55.8321 11.9367 56.4037C12.2085 56.9752 12.3475 57.7772 12.3475 58.8067C12.3475 59.5135 12.2703 60.1834 12.1159 60.8164C11.9614 61.4494 11.6679 62.0087 11.2416 62.4881C10.8122 62.9674 10.1944 63.3393 9.38498 63.6035C8.5756 63.8647 7.51291 63.9969 6.20307 63.9969C5.32882 63.9969 4.52254 63.9569 3.78421 63.874C3.04589 63.791 2.40333 63.6926 1.85963 63.5759C1.31283 63.4591 0.877253 63.3454 0.549795 63.2348V60.844C1.11512 61.0069 1.88434 61.179 2.85745 61.3603C3.83055 61.5416 4.94576 61.6307 6.20307 61.6307C7.20398 61.6307 7.95466 61.5262 8.45821 61.3173C8.95866 61.1083 9.29539 60.801 9.46838 60.3923C9.64138 59.9836 9.72788 59.4827 9.72788 58.8835C9.72788 58.4133 9.66918 58.0415 9.54871 57.768C9.43131 57.4976 9.24287 57.2794 8.98956 57.1166C8.73315 56.9537 8.37789 56.8185 7.92377 56.7079L3.85218 55.7553L3.846 55.7645Z" fill="#A8A7A7"/>
<path d="M29.6316 49.0255H24.0864V63.7817H21.5193V49.0255H15.9741V46.7423H29.6316V49.0255Z" fill="#A8A7A7"/>
<path d="M41.0525 63.9999C39.6315 63.9999 38.4298 63.8586 37.4474 63.5789C36.465 63.2993 35.6711 62.8261 35.0718 62.1654C34.4725 61.5047 34.0338 60.6074 33.7619 59.4766C33.4901 58.3457 33.3511 56.926 33.3511 55.2236C33.3511 53.1218 33.6229 51.4286 34.1697 50.141C34.7165 48.8534 35.5568 47.9223 36.6967 47.3416C37.8335 46.7608 39.2886 46.4719 41.0525 46.4719C42.455 46.4719 43.6475 46.6133 44.6298 46.8929C45.6122 47.1726 46.4 47.6489 46.9931 48.3188C47.5862 48.9887 48.0218 49.889 48.3029 51.0229C48.584 52.1569 48.7261 53.555 48.7261 55.2206C48.7261 57.3225 48.4543 59.0218 47.9075 60.3155C47.3607 61.6092 46.5235 62.5495 45.396 63.1272C44.2653 63.708 42.8195 63.9969 41.0525 63.9969V63.9999ZM41.0525 61.6338C42.2728 61.6338 43.2551 61.4586 44.0027 61.1052C44.7503 60.7519 45.2909 60.1096 45.6277 59.1754C45.9644 58.2413 46.1343 56.926 46.1343 55.2206C46.1343 53.8439 46.0478 52.7284 45.8748 51.8772C45.7018 51.026 45.4207 50.3746 45.0283 49.9198C44.636 49.468 44.1139 49.1577 43.459 48.9948C42.8041 48.8319 42.0009 48.749 41.0556 48.749C39.8354 48.749 38.8468 48.9241 38.093 49.2806C37.3362 49.634 36.7863 50.2762 36.4403 51.2104C36.0943 52.1446 35.9213 53.4782 35.9213 55.2175C35.9213 56.5757 36.0109 57.6758 36.1932 58.5178C36.3754 59.3598 36.6627 60.0021 37.0551 60.4476C37.4474 60.8901 37.9695 61.2005 38.6244 61.3726C39.2793 61.5447 40.0887 61.6307 41.0556 61.6307L41.0525 61.6338Z" fill="#A8A7A7"/>
<path d="M57.033 63.7817H54.4937V46.7454H57.033V63.7817ZM60.4466 57.7496H56.1866V55.5493H60.3663C61.7873 55.5493 62.8531 55.3004 63.5636 54.8026C64.2741 54.3048 64.6294 53.4137 64.6294 52.1261C64.6294 50.986 64.2927 50.184 63.6192 49.72C62.9458 49.259 61.8615 49.0255 60.3694 49.0255H56.1896V46.7423H60.3694C61.9727 46.7423 63.2794 46.9175 64.2896 47.2709C65.2998 47.6242 66.0381 48.1958 66.5015 48.9825C66.9649 49.7691 67.1965 50.817 67.1965 52.1199C67.1965 54.0958 66.6219 55.5248 65.4758 56.4128C64.3297 57.3009 62.6523 57.7434 60.4497 57.7434L60.4466 57.7496ZM60.1994 57.2333H63.0662L67.6816 63.7817H64.6232L60.1964 57.2333H60.1994Z" fill="#A8A7A7"/>
<path d="M84.4593 63.7817H73.0415V46.7454H84.2152V49.0286H75.5839V53.9729H83.205V56.2008H75.5839V61.391H84.4624V63.7817H84.4593Z" fill="#A8A7A7"/>
<path d="M30.4536 29.5801L21.5258 2.72877C21.0624 0.998704 19.3479 0 17.7106 0C15.8663 0 12.8605 0.304221 10.9668 0.915734L0.642607 28.0467C-0.864934 31.7311 0.457254 33.6609 2.78962 33.6609H7.67059C6.56774 32.4625 6.14143 30.6249 6.94771 28.2433C8.38729 23.7845 13.1663 22.1651 16.8271 23.5786C20.0306 24.817 21.7729 26.8236 22.3969 29.325L22.953 31.2333C23.3731 32.6714 24.6953 33.6609 26.1998 33.6609H31.9364C31.5812 32.991 30.605 30.0902 30.4536 29.5801ZM19.5178 19.8419C18.6281 19.3441 17.6488 19.0737 16.6293 18.9723C12.4589 18.5482 9.83923 20.5426 9.83923 20.5426L15.2114 6.62217L19.9812 20.1031L19.5178 19.8419Z" fill="black"/>
<path d="M53.7245 6.92329L44.3579 19.4824V26.8943C44.3579 28.8302 44.5124 30.4005 45.331 32.5393C44.7688 33.0985 43.3354 34.0143 41.4911 34.0143C39.2916 34.0143 36.7708 32.822 36.7708 29.3987V18.8801C35.6062 16.9687 26.3787 3.1528 25.2017 2.03426C25.8689 1.37358 28.2909 0.0214844 30.6449 0.0214844C33.1626 0.0214844 35.2416 1.68087 36.3538 3.71515L41.8433 13.2781L46.7984 5.18094C47.9909 3.29416 47.4904 1.19227 47.0795 0.783572C53.7986 -1.26915 55.2598 1.32134 55.3123 2.84858C55.3123 3.91797 54.5956 5.54662 53.7245 6.92329Z" fill="black"/>
<path d="M83.4366 8.99753C81.7097 7.32585 78.4043 5.89079 75.0926 5.89079L75.1451 27.4935C75.1451 29.4295 75.1266 30.7877 76.1182 32.5362C75.5035 33.0955 74.1226 34.0112 72.2289 34.0112C70.0294 34.0112 68.389 32.361 68.389 30.4067V5.89387C65.1793 5.89387 61.9541 7.45185 60.045 9.0006C58.2532 8.18628 57.3512 0.00305176 60.3755 0.00305176H83.0875C85.8709 0.00305176 85.2778 8.18628 83.4366 9.0006V8.99753Z" fill="black"/>
</g>
<defs>
<clipPath id="clip0_212_236">
<rect width="85" height="64" fill="white"/>
</clipPath>
</defs>
</svg>
