<svg width="85" height="65" viewBox="0 0 85 65" fill="none" xmlns="http://www.w3.org/2000/svg">
<g clip-path="url(#clip0_212_248)">
<path d="M22.5729 61.6325V63.9233C21.952 64.1636 21.2353 64.4008 20.4136 64.6411C19.5918 64.8814 18.6095 65 17.4634 65C16.3173 65 15.2144 64.8627 14.3216 64.5849C13.4288 64.3103 12.6782 63.839 12.0665 63.1774C11.4548 62.5157 11.0038 61.6044 10.7134 60.4465C10.423 59.2887 10.2778 57.8343 10.2778 56.0866C10.2778 53.8957 10.5775 52.1542 11.1799 50.8559C11.7823 49.5576 12.6689 48.6244 13.8428 48.0533C15.0167 47.4821 16.4594 47.1981 18.1739 47.1981C18.8844 47.1981 19.5795 47.2168 20.2653 47.2543C20.948 47.2918 21.5906 47.3542 22.1899 47.4478V49.7105C21.5164 49.6387 20.8553 49.5856 20.2097 49.5576C19.564 49.5295 18.8844 49.517 18.1739 49.517C16.9536 49.517 15.9558 49.7011 15.1835 50.0694C14.4112 50.4377 13.8366 51.0962 13.4628 52.0418C13.089 52.9906 12.9037 54.3389 12.9037 56.0835C12.9037 57.8281 13.0705 59.2263 13.4103 60.1532C13.747 61.0832 14.2846 61.723 15.0229 62.0726C15.7612 62.4221 16.722 62.5969 17.9051 62.5969C18.6713 62.5969 19.4714 62.5095 20.3085 62.3347C21.1457 62.1599 21.9026 61.9259 22.576 61.6325H22.5729Z" fill="#ACB48F"/>
<path d="M26.1779 64.7784L32.897 47.4759H34.8092C34.6825 48.0096 34.5281 48.5807 34.3458 49.1862C34.1635 49.7916 33.9813 50.4065 33.799 51.0213C33.6167 51.6392 33.4345 52.2073 33.2522 52.7316C33.07 53.2559 32.9062 53.7116 32.761 54.0986L28.8532 64.7784H26.1748H26.1779ZM29.4 60.7493V58.5428H38.7418V60.7493H29.4ZM42.1584 64.7784H39.4801L35.5722 54.0986C35.427 53.7116 35.2633 53.2559 35.081 52.7316C34.8988 52.2073 34.7134 51.6455 34.5219 51.0463C34.3304 50.4502 34.145 49.8416 33.9627 49.2236C33.7805 48.6088 33.626 48.0221 33.4994 47.4728H35.5197L42.1584 64.7753V64.7784Z" fill="#ACB48F"/>
<path d="M49.5359 64.7784H46.9966V47.4758H58.0591V49.7947H49.5359V55.506H57.0489V57.7687H49.5359V64.7784Z" fill="#ACB48F"/>
<path d="M74.719 64.7784H63.3013V47.4758H74.475V49.7947H65.8437V54.8163H73.4648V57.079H65.8437V62.3503H74.7221V64.7784H74.719Z" fill="#ACB48F"/>
<path d="M30.4536 30.0423L21.5258 2.7714C21.0624 1.01431 19.3479 0 17.7106 0C15.8663 0 12.8605 0.308974 10.9668 0.930043L0.642607 28.4849C-0.864934 32.2269 0.457254 34.1869 2.78962 34.1869H7.67059C6.56774 32.9697 6.14143 31.1034 6.94771 28.6846C8.38729 24.1561 13.1663 22.5114 16.8271 23.947C20.0306 25.2048 21.7729 27.2428 22.3969 29.7832L22.953 31.7213C23.3731 33.1819 24.6953 34.1869 26.1998 34.1869H31.9364C31.5812 33.5065 30.605 30.5603 30.4536 30.0423ZM19.5178 20.152C18.6281 19.6464 17.6488 19.3717 16.6293 19.2687C12.4589 18.838 9.83923 20.8635 9.83923 20.8635L15.2114 6.72564L19.9812 20.4172L19.5178 20.152Z" fill="black"/>
<path d="M53.7245 7.0315L44.3579 19.7868V27.3145C44.3579 29.2807 44.5124 30.8756 45.331 33.0477C44.7688 33.6157 43.3354 34.5458 41.4911 34.5458C39.2916 34.5458 36.7708 33.3349 36.7708 29.8581V19.1751C35.6062 17.2339 26.3787 3.2021 25.2017 2.06607C25.8689 1.39507 28.2909 0.0218506 30.6449 0.0218506C33.1626 0.0218506 35.2416 1.70716 36.3538 3.77323L41.8433 13.4856L46.7984 5.26192C47.9909 3.34566 47.4904 1.21093 47.0795 0.795846C53.7986 -1.28895 55.2598 1.34201 55.3123 2.89312C55.3123 3.97921 54.5956 5.63332 53.7245 7.0315Z" fill="black"/>
<path d="M83.4366 9.13819C81.7097 7.44039 78.4043 5.98291 75.0926 5.98291L75.1451 27.9232C75.1451 29.8894 75.1266 31.2688 76.1182 33.0447C75.5035 33.6127 74.1226 34.5427 72.2289 34.5427C70.0294 34.5427 68.389 32.8668 68.389 30.8818V5.98603C65.1793 5.98603 61.9541 7.56835 60.045 9.14131C58.2532 8.31426 57.3512 0.00317383 60.3755 0.00317383H83.0875C85.8709 0.00317383 85.2778 8.31426 83.4366 9.14131V9.13819Z" fill="black"/>
</g>
<defs>
<clipPath id="clip0_212_248">
<rect width="85" height="65" fill="white"/>
</clipPath>
</defs>
</svg>
