<svg width="15" height="15" viewBox="0 0 15 15" fill="none" xmlns="http://www.w3.org/2000/svg">
<path d="M1.48101 6.6854C1.0021 6.40233 0.639241 6.02786 0.393248 5.562C0.147255 5.09524 0.0164951 4.5717 0.00260181 3.99048C-0.0112915 3.65417 0.0303884 3.30277 0.129276 2.9354C0.227346 2.56892 0.375269 2.18646 0.573044 1.78893C0.600831 1.74278 0.63679 1.71261 0.67847 1.69753C0.720967 1.68244 0.756109 1.69043 0.783895 1.7206L1.54394 2.20244C1.60033 2.21752 1.63139 2.24059 1.63874 2.27165C1.64528 2.30271 1.64201 2.34087 1.62812 2.38612C1.50144 2.64612 1.40664 2.90612 1.3429 3.16611C1.27915 3.42611 1.24809 3.67901 1.24809 3.92304C1.24809 4.44303 1.41318 4.86719 1.74417 5.19552C2.07515 5.52473 2.56469 5.68889 3.21195 5.68889C3.85922 5.68889 4.38062 5.51674 4.69036 5.17244C5.0001 4.82815 5.15538 4.37382 5.15538 3.80768C5.15538 3.50154 5.10226 3.13506 4.99683 2.70646C4.89141 2.27875 4.768 1.8963 4.62743 1.55999C4.59883 1.46859 4.61354 1.39937 4.66993 1.35323L5.5779 0.84832C5.6204 0.833235 5.65554 0.833235 5.68332 0.84832C5.71111 0.863405 5.73236 0.894463 5.74707 0.939718C5.95792 1.44463 6.11974 1.93002 6.23252 2.39588C6.3453 2.86264 6.40169 3.30987 6.40169 3.73758C6.40169 4.36494 6.28891 4.93374 6.06335 5.44575C5.83778 5.95776 5.48555 6.36329 5.00746 6.66144C4.52855 6.9596 3.93032 7.10867 3.21195 7.10867C2.53608 7.10867 1.95829 6.96758 1.48019 6.68451L1.48101 6.6854ZM0.509298 14.8838C0.410411 14.8838 0.361376 14.8296 0.361376 14.7231L0.318879 13.645C0.318879 13.5838 0.336041 13.5421 0.372 13.519C0.407142 13.4959 0.445553 13.4844 0.48805 13.4844C0.811682 13.5305 1.12142 13.5536 1.41727 13.5536C1.93786 13.5536 2.36773 13.4196 2.70526 13.1525C3.0436 12.8845 3.26099 12.5065 3.35987 12.0176L3.71865 12.4994H2.24024C1.64855 12.4994 1.1631 12.3122 0.783078 11.9377C0.403055 11.5632 0.212636 11.0548 0.212636 10.4123C0.212636 9.98462 0.304168 9.56401 0.487232 9.15138C0.670297 8.73876 0.920376 8.406 1.23665 8.15399C1.55375 7.90198 1.9019 7.77597 2.28192 7.77597C2.76083 7.77597 3.16537 7.93303 3.49636 8.24627C3.82734 8.55951 4.07742 8.97302 4.24578 9.48503C4.41495 9.99704 4.49912 10.5286 4.49912 11.0787C4.49912 11.2775 4.47052 11.5375 4.41495 11.8587L3.76033 11.0557H12.2303C12.639 11.0557 12.9487 10.9678 13.1595 10.7921C13.3704 10.6164 13.4766 10.3298 13.4766 9.93227C13.4766 9.53473 13.3565 9.01473 13.1179 8.37317C13.0893 8.28177 13.1179 8.21255 13.202 8.16641L14.11 7.75379C14.1664 7.7387 14.2081 7.7387 14.2367 7.75379C14.2645 7.76887 14.2857 7.79993 14.3004 7.84519C14.441 8.25781 14.5505 8.62873 14.6282 8.95705C14.705 9.28626 14.7442 9.60305 14.7442 9.90919C14.7442 10.6741 14.5366 11.297 14.1215 11.778C13.7063 12.2598 13.0762 12.5003 12.2311 12.5003H4.3749C4.19184 13.2954 3.84696 13.9103 3.34026 14.346C2.83356 14.7817 2.19284 15 1.41808 15C1.08056 15 0.777357 14.9618 0.510116 14.8855L0.509298 14.8838ZM3.29776 10.9625C3.29776 10.4736 3.22012 10.0494 3.06566 9.69001C2.91039 9.33063 2.65704 9.15138 2.30562 9.15138C2.00977 9.15138 1.77767 9.26585 1.6085 9.49568C1.43933 9.72462 1.35515 9.98551 1.35515 10.2757C1.35515 10.7957 1.67225 11.0557 2.30562 11.0557H4.05863L3.25608 11.7434C3.28387 11.4532 3.29858 11.1932 3.29858 10.9634L3.29776 10.9625ZM2.59002 4.17416C2.56877 4.14399 2.55815 4.09785 2.55815 4.03662V2.9354C2.55815 2.88926 2.56877 2.85554 2.59002 2.83247C2.61127 2.80939 2.64968 2.79786 2.70607 2.79786H3.74071C3.7971 2.79786 3.83552 2.80939 3.85676 2.83247C3.87801 2.85554 3.88864 2.89014 3.88864 2.9354V4.03662C3.88864 4.14399 3.83878 4.19723 3.74071 4.19723H2.70607C2.64968 4.21232 2.61127 4.20522 2.59002 4.17416ZM5.49454 9.37944V8.34743C5.49454 8.25603 5.54357 8.20989 5.64246 8.20989H11.2186C11.3028 8.20989 11.3452 8.25603 11.3452 8.34743V9.37944C11.3452 9.48681 11.3028 9.54005 11.2186 9.54005H5.64246C5.54357 9.54005 5.49454 9.48681 5.49454 9.37944ZM11.9892 6.92588C11.6721 6.77325 11.4155 6.52834 11.2186 6.19203C11.0077 6.51325 10.7503 6.74663 10.4479 6.89127C10.1447 7.0368 9.81045 7.10956 9.44432 7.10956C8.75456 7.10956 8.1694 6.90724 7.69131 6.50172C7.2124 6.09708 6.97295 5.35169 6.97295 4.26556V0.11447C6.97295 0.0842996 6.98357 0.0567913 7.00482 0.0346072C7.02607 0.0115357 7.04323 0 7.05794 0H8.00841C8.07869 0 8.11383 0.0381566 8.11383 0.11447V4.3117C8.11383 4.78555 8.22253 5.1334 8.44155 5.35524C8.65976 5.57708 8.98666 5.688 9.42389 5.688C9.74752 5.688 10.0188 5.5966 10.2371 5.41292C10.4553 5.22924 10.6628 4.916 10.8598 4.47231C10.944 4.22829 11.0707 3.9674 11.2398 3.69232C11.7048 2.89724 12.2818 2.4997 12.9716 2.4997C13.3377 2.4997 13.6752 2.61861 13.9858 2.85554C14.2955 3.09246 14.5415 3.41014 14.7254 3.80768C14.9085 4.20522 15 4.60986 15 5.02337C15 5.69599 14.8128 6.21953 14.4402 6.594C14.0667 6.96847 13.5845 7.1557 12.9936 7.1557C12.6414 7.1557 12.3072 7.07939 11.9901 6.92676L11.9892 6.92588ZM13.6368 5.56111C13.7986 5.41558 13.8795 5.22125 13.8795 4.97634C13.8795 4.6702 13.7913 4.39955 13.6156 4.16262C13.439 3.9257 13.2249 3.80679 12.9716 3.80679C12.7182 3.80679 12.4959 3.92925 12.3063 4.17327C12.1159 4.41819 12.0211 4.68528 12.0211 4.97634C12.0211 5.22125 12.102 5.41558 12.2638 5.56111C12.4257 5.70664 12.6545 5.7794 12.9503 5.7794C13.2462 5.7794 13.475 5.70664 13.6368 5.56111Z" fill="#D7DEBD"/>
</svg>
