<svg width="59" height="88" viewBox="0 0 59 88" fill="none" xmlns="http://www.w3.org/2000/svg">
<g clip-path="url(#clip0_111_430)">
<path d="M24.1523 0.546875C29.7366 -0.677192 36.9151 0.175405 41.7549 2.87891C46.9326 5.77308 49.0159 9.97182 51.0693 14.7012C53.7989 20.9883 55.2964 27.5906 56.4639 34.1943L56.46 34.1953C57.7207 41.3217 59.3361 48.605 58.9365 55.8369C58.257 68.1355 52.443 81.0728 38.0586 86.1904C31.1104 88.6623 23.3243 88.7576 16.626 85.5264C10.046 82.3513 5.93369 76.7141 3.89355 70.6943C3.80035 70.4459 3.71415 70.1937 3.64258 69.9385C3.54938 69.6356 3.47381 69.3363 3.40723 69.0352C1.23384 60.923 0.0622186 52.5467 0.00390625 44.2354C-0.0493877 36.4279 0.395315 28.045 3.72949 20.6904C7.27188 12.8813 13.9782 2.77714 24.1523 0.546875Z" fill="#ACB48F"/>
<path d="M45.6698 21.3573C45.6698 21.3573 32.0015 20.7036 23.4528 17.5608C11.2168 13.063 13.4368 30.1709 27.6014 26.2893L45.6698 21.3556V21.3573Z" fill="black"/>
<path d="M43.6163 26.2315C43.6163 26.2315 45.8813 41.8821 43.9694 49.6794C41.7261 58.8267 36.5549 56.7276 37.4409 49.7986C38.5367 41.2131 43.618 26.2315 43.618 26.2315H43.6163Z" fill="black"/>
<path d="M35.9603 27.905C38.9764 30.2373 36.5782 35.4894 35.0276 35.9252C34.6029 32.2462 30.6309 29.4423 28.4425 32.2667C27.28 33.7682 27.6114 36.1057 29.8048 37.7979C31.78 39.3199 34.0384 40.6019 34.8911 42.9104C36.3067 46.7409 35.1475 53.6495 30.4676 54.7306C28.1577 55.2634 23.4878 54.3339 20.6066 52.0135C16.9026 49.029 15.019 44.5005 15.482 40.1048C15.8784 36.3457 18.8312 32.1066 22.3469 31.2367C30.1645 29.3027 30.829 29.129 35.9603 27.905Z" fill="black"/>
<path d="M44.4607 63.0062C44.4607 63.0062 38.6366 74.7293 27.673 74.7293C21.8456 74.7293 13.1487 70.5924 15.4736 65.342C16.1465 63.8217 18.9644 63.0062 22.9165 63.0062H44.4607Z" fill="black"/>
<path d="M32.8243 57.475C32.8243 57.475 37.2094 58.6326 36.4433 60.6194C35.8088 62.2657 33.6337 62.1295 33.6337 62.1295L29.9131 59.9929C29.9131 59.9929 27.4832 62.0461 25.6795 61.4127C20.9846 59.7648 26.2841 57.0238 26.2841 57.0238L30.3728 59.2506L32.8243 57.475Z" fill="black"/>
</g>
<defs>
<clipPath id="clip0_111_430">
<rect width="59" height="88" fill="white"/>
</clipPath>
</defs>
</svg>
