<svg width="96" height="15" viewBox="0 0 96 15" fill="none" xmlns="http://www.w3.org/2000/svg">
<path d="M3.78003 14.22C3.0147 14.22 2.3427 14.0893 1.76403 13.828C1.1947 13.5667 0.756033 13.198 0.448033 12.722C0.149366 12.246 3.31253e-05 11.7047 3.31253e-05 11.098C3.31253e-05 10.7153 0.0606998 10.3233 0.182033 9.922C0.303366 9.52067 0.490033 9.124 0.742033 8.732C0.798033 8.62933 0.8727 8.606 0.966033 8.662L1.84803 9.18C1.9507 9.236 1.97403 9.31533 1.91803 9.418C1.61003 9.98733 1.45603 10.5193 1.45603 11.014C1.45603 11.5367 1.66603 11.9427 2.08603 12.232C2.50603 12.5213 3.0707 12.666 3.78003 12.666C4.22803 12.666 4.62937 12.6287 4.98403 12.554C5.3387 12.4793 5.61403 12.372 5.81003 12.232C6.01537 12.092 6.11803 11.938 6.11803 11.77C6.11803 11.5927 6.04337 11.4433 5.89403 11.322C5.7447 11.2007 5.5207 11.084 5.22203 10.972C4.92337 10.86 4.46603 10.72 3.85003 10.552C3.79403 10.5333 3.75203 10.5053 3.72403 10.468C3.70537 10.4307 3.70537 10.384 3.72403 10.328L4.03203 9.166C4.06937 9.06333 4.14403 9.026 4.25603 9.054C4.8067 9.21267 5.3107 9.32 5.76803 9.376C6.2347 9.42267 6.76203 9.446 7.35003 9.446C7.4807 9.446 7.5927 9.52533 7.68603 9.684C7.77937 9.83333 7.82603 10.0107 7.82603 10.216C7.82603 10.4307 7.77937 10.6173 7.68603 10.776C7.5927 10.9253 7.4807 11 7.35003 11H6.60803L6.97203 10.664C7.2987 11.0373 7.46203 11.4107 7.46203 11.784C7.46203 12.26 7.30337 12.68 6.98603 13.044C6.67803 13.4173 6.24403 13.7067 5.68403 13.912C5.12403 14.1173 4.48937 14.22 3.78003 14.22ZM7.14539 11C7.01473 11 6.90273 10.9253 6.80939 10.776C6.71606 10.6173 6.66939 10.4307 6.66939 10.216C6.66939 10.0107 6.71606 9.83333 6.80939 9.684C6.90273 9.52533 7.01473 9.446 7.14539 9.446H7.21539C7.86873 9.446 8.42406 9.362 8.88139 9.194C9.34806 9.01667 9.58139 8.718 9.58139 8.298C9.58139 7.98067 9.44139 7.67733 9.16139 7.388C8.88139 7.09867 8.44273 6.758 7.84539 6.366C7.67739 6.254 7.50006 6.142 7.31339 6.03C7.13606 5.918 6.95406 5.80133 6.76739 5.68C6.70206 5.63333 6.66939 5.56333 6.66939 5.47L6.71139 4.14C6.71139 4.03733 6.76273 3.972 6.86539 3.944L11.0094 2.656C11.0654 2.63733 11.1121 2.63733 11.1494 2.656C11.1867 2.67467 11.2101 2.712 11.2194 2.768L11.5554 3.874C11.5647 3.93 11.5601 3.97667 11.5414 4.014C11.5227 4.05133 11.4854 4.07467 11.4294 4.084L8.48939 5.036C9.38539 5.54 10.0341 6.072 10.4354 6.632C10.8461 7.192 11.0514 7.74733 11.0514 8.298C11.0514 8.76467 10.9207 9.20333 10.6594 9.614C10.3981 10.0247 9.99206 10.3607 9.44139 10.622C8.90006 10.874 8.21406 11 7.38339 11H7.14539ZM6.96339 3.16C6.87939 3.17867 6.82339 3.15067 6.79539 3.076L6.50139 2.082C6.48273 2.00733 6.51539 1.956 6.59939 1.928L10.2814 0.766C10.3654 0.738 10.4167 0.766 10.4354 0.85L10.7294 1.83C10.7574 1.90467 10.7294 1.956 10.6454 1.984L6.96339 3.16ZM12.7736 11.014C12.4189 11.014 12.0829 10.9907 11.7656 10.944C11.6536 10.9253 11.5976 10.8647 11.5976 10.762L11.6396 9.572C11.6396 9.516 11.6583 9.474 11.6956 9.446C11.7329 9.418 11.7749 9.40867 11.8216 9.418C12.1016 9.446 12.3909 9.46 12.6896 9.46C13.2963 9.46 13.7863 9.38067 14.1596 9.222C14.5423 9.06333 14.7336 8.774 14.7336 8.354C14.7336 8.12067 14.7103 7.892 14.6636 7.668C14.5796 7.06133 14.4909 6.45467 14.3976 5.848C14.3883 5.736 14.4349 5.67067 14.5376 5.652L15.6296 5.456C15.6856 5.44667 15.7276 5.456 15.7556 5.484C15.7929 5.50267 15.8163 5.54 15.8256 5.596C15.8723 5.85733 15.9143 6.12333 15.9516 6.394C15.9796 6.62733 16.0123 6.856 16.0496 7.08C16.1616 7.84533 16.3483 8.43333 16.6096 8.844C16.8803 9.24533 17.3189 9.446 17.9256 9.446C18.0656 9.446 18.1776 9.52533 18.2616 9.684C18.3549 9.83333 18.4016 10.0107 18.4016 10.216C18.4016 10.4307 18.3549 10.6173 18.2616 10.776C18.1776 10.9253 18.0656 11 17.9256 11C17.4683 11 17.0389 10.8973 16.6376 10.692C16.2456 10.4773 15.9329 10.146 15.6996 9.698C15.4943 10.1087 15.1489 10.4307 14.6636 10.664C14.1783 10.8973 13.5483 11.014 12.7736 11.014ZM17.7176 11C17.5776 11 17.4656 10.9253 17.3816 10.776C17.2882 10.6173 17.2416 10.4353 17.2416 10.23C17.2322 10.0153 17.2742 9.83333 17.3676 9.684C17.4609 9.52533 17.5776 9.446 17.7176 9.446C17.7549 9.446 17.7922 9.446 17.8296 9.446C18.3242 9.43667 18.6882 9.334 18.9216 9.138C19.1549 8.942 19.2716 8.64333 19.2716 8.242C19.2716 8.046 19.2436 7.82667 19.1876 7.584C19.1409 7.34133 19.0662 7.07533 18.9636 6.786L18.8796 6.562C18.8422 6.45 18.8702 6.37067 18.9636 6.324L20.0416 5.862C20.0976 5.84333 20.1442 5.84333 20.1816 5.862C20.2189 5.87133 20.2469 5.904 20.2656 5.96C20.4429 6.38933 20.5782 6.79067 20.6716 7.164C20.7649 7.528 20.8116 7.88267 20.8116 8.228C20.8116 9.04 20.5689 9.698 20.0836 10.202C19.5982 10.706 18.8609 10.972 17.8716 11C17.8249 11 17.7736 11 17.7176 11ZM18.0396 4.364C18.0116 4.35467 17.9929 4.33133 17.9836 4.294C17.9742 4.25667 17.9789 4.224 17.9976 4.196L18.5856 3.076C18.6322 3.00133 18.6929 2.98267 18.7676 3.02L19.8596 3.622C19.8969 3.64067 19.9202 3.66867 19.9296 3.706C19.9389 3.734 19.9342 3.762 19.9156 3.79L19.3416 4.924C19.3229 4.952 19.2949 4.97533 19.2576 4.994C19.2202 5.00333 19.1829 4.99867 19.1456 4.98L18.0396 4.364ZM20.2458 13.66C20.1524 13.6413 20.1058 13.5853 20.1058 13.492L20.1618 12.302C20.1618 12.2553 20.1758 12.218 20.2038 12.19C20.2318 12.162 20.2738 12.1527 20.3298 12.162C20.6844 12.19 21.0204 12.176 21.3378 12.12C21.7578 12.036 22.0751 11.8447 22.2898 11.546C22.5044 11.2567 22.6164 10.8553 22.6258 10.342C22.6258 9.98733 22.5651 9.58133 22.4438 9.124C22.3318 8.66667 22.1778 8.158 21.9818 7.598C21.9444 7.486 21.9771 7.40667 22.0798 7.36L23.0738 6.898C23.1298 6.86067 23.1811 6.856 23.2278 6.884C23.2838 6.90267 23.3211 6.94 23.3398 6.996C23.3864 7.108 23.4284 7.22 23.4658 7.332C23.6618 7.87333 23.8111 8.382 23.9138 8.858C24.0164 9.32467 24.0631 9.81467 24.0538 10.328C24.0538 10.9627 23.9511 11.5087 23.7458 11.966C23.5498 12.4233 23.2744 12.792 22.9198 13.072C22.5744 13.352 22.1731 13.5433 21.7158 13.646C21.2771 13.7673 20.7871 13.772 20.2458 13.66ZM21.3798 5.4C21.3518 5.39067 21.3331 5.36733 21.3238 5.33C21.3144 5.29267 21.3191 5.26 21.3378 5.232L21.9258 4.112C21.9724 4.03733 22.0331 4.01867 22.1078 4.056L23.1998 4.658C23.2371 4.67667 23.2604 4.70467 23.2698 4.742C23.2791 4.77 23.2744 4.798 23.2558 4.826L22.6818 5.96C22.6631 5.988 22.6351 6.01133 22.5978 6.03C22.5604 6.03933 22.5231 6.03467 22.4858 6.016L21.3798 5.4ZM27.6749 13.744C27.2455 13.744 26.8629 13.7067 26.5269 13.632C26.4709 13.6227 26.4289 13.5993 26.4009 13.562C26.3822 13.534 26.3729 13.4967 26.3729 13.45L26.4429 12.274C26.4429 12.2273 26.4569 12.19 26.4849 12.162C26.5222 12.134 26.5689 12.1247 26.6249 12.134C26.8955 12.1713 27.1942 12.1947 27.5209 12.204H27.6749C28.3002 12.204 28.8042 12.0687 29.1869 11.798C29.5789 11.5273 29.8402 11.14 29.9709 10.636C29.6722 10.888 29.2569 11.014 28.7249 11.014C28.2769 11.014 27.8755 10.9253 27.5209 10.748C27.1662 10.5707 26.8862 10.314 26.6809 9.978C26.4755 9.63267 26.3729 9.21733 26.3729 8.732C26.3729 8.256 26.4755 7.80333 26.6809 7.374C26.8955 6.93533 27.1849 6.58067 27.5489 6.31C27.9222 6.03933 28.3375 5.904 28.7949 5.904C29.3735 5.904 29.8635 6.086 30.2649 6.45C30.6662 6.80467 30.9602 7.26667 31.1469 7.836C31.3429 8.396 31.4409 8.998 31.4409 9.642C31.4409 10.4727 31.2915 11.196 30.9929 11.812C30.7035 12.428 30.2742 12.904 29.7049 13.24C29.1449 13.576 28.4682 13.744 27.6749 13.744ZM28.7809 9.46C29.1355 9.46 29.4062 9.38533 29.5929 9.236C29.7889 9.08667 29.8869 8.87667 29.8869 8.606C29.8869 8.41 29.8402 8.21867 29.7469 8.032C29.6535 7.836 29.5229 7.67733 29.3549 7.556C29.1962 7.43467 29.0095 7.374 28.7949 7.374C28.5802 7.374 28.3889 7.43467 28.2209 7.556C28.0622 7.668 27.9362 7.822 27.8429 8.018C27.7589 8.20467 27.7169 8.396 27.7169 8.592C27.7169 8.86267 27.8055 9.07733 27.9829 9.236C28.1695 9.38533 28.4355 9.46 28.7809 9.46ZM32.6538 13.66C32.5605 13.6413 32.5138 13.5853 32.5138 13.492L32.5698 12.302C32.5698 12.2553 32.5838 12.218 32.6118 12.19C32.6398 12.162 32.6818 12.1527 32.7378 12.162C33.0925 12.19 33.4285 12.176 33.7458 12.12C34.1658 12.036 34.4832 11.8447 34.6978 11.546C34.9125 11.2567 35.0245 10.8553 35.0338 10.342C35.0338 9.98733 34.9732 9.58133 34.8518 9.124C34.7398 8.66667 34.5858 8.158 34.3898 7.598C34.3525 7.486 34.3852 7.40667 34.4878 7.36L35.4818 6.898C35.5378 6.86067 35.5892 6.856 35.6358 6.884C35.6918 6.90267 35.7292 6.94 35.7478 6.996C35.7945 7.108 35.8365 7.22 35.8738 7.332C36.0698 7.87333 36.2192 8.382 36.3218 8.858C36.4245 9.32467 36.4712 9.81467 36.4618 10.328C36.4618 10.9627 36.3592 11.5087 36.1538 11.966C35.9578 12.4233 35.6825 12.792 35.3278 13.072C34.9825 13.352 34.5812 13.5433 34.1238 13.646C33.6852 13.7673 33.1952 13.772 32.6538 13.66ZM40.3834 11C39.8887 11 39.4267 10.9207 38.9974 10.762C38.568 10.594 38.204 10.2813 37.9054 9.824C37.616 9.36667 37.4714 8.72267 37.4714 7.892V3.02C37.4714 2.94533 37.5087 2.908 37.5834 2.908H38.7174C38.8014 2.908 38.8434 2.94533 38.8434 3.02V7.934C38.8434 8.466 38.974 8.85333 39.2354 9.096C39.4967 9.32933 39.8794 9.446 40.3834 9.446C40.514 9.446 40.626 9.52533 40.7194 9.684C40.8127 9.83333 40.8594 10.0107 40.8594 10.216C40.8594 10.4307 40.8127 10.6173 40.7194 10.776C40.626 10.9253 40.514 11 40.3834 11ZM40.1734 11C40.0427 11 39.9307 10.9253 39.8374 10.776C39.744 10.6173 39.6974 10.4307 39.6974 10.216C39.6974 10.0107 39.744 9.83333 39.8374 9.684C39.9307 9.52533 40.0427 9.446 40.1734 9.446H40.2434C40.8967 9.446 41.452 9.362 41.9094 9.194C42.376 9.01667 42.6094 8.718 42.6094 8.298C42.6094 7.98067 42.4694 7.67733 42.1894 7.388C41.9094 7.09867 41.4707 6.758 40.8734 6.366C40.7054 6.254 40.528 6.142 40.3414 6.03C40.164 5.918 39.982 5.80133 39.7954 5.68C39.73 5.63333 39.6974 5.56333 39.6974 5.47L39.7394 4.14C39.7394 4.03733 39.7907 3.972 39.8934 3.944L44.0374 2.656C44.0934 2.63733 44.14 2.63733 44.1774 2.656C44.2147 2.67467 44.238 2.712 44.2474 2.768L44.5834 3.874C44.5927 3.93 44.588 3.97667 44.5694 4.014C44.5507 4.05133 44.5134 4.07467 44.4574 4.084L41.5174 5.036C42.4134 5.54 43.062 6.072 43.4634 6.632C43.874 7.192 44.0794 7.74733 44.0794 8.298C44.0794 8.76467 43.9487 9.20333 43.6874 9.614C43.426 10.0247 43.02 10.3607 42.4694 10.622C41.928 10.874 41.242 11 40.4114 11H40.1734ZM50.3834 13.758C49.5527 13.758 48.8527 13.6133 48.2834 13.324C47.7141 13.044 47.2894 12.6567 47.0094 12.162C46.7294 11.6767 46.5894 11.1307 46.5894 10.524C46.5894 10.1413 46.6454 9.754 46.7574 9.362C46.8694 8.96067 47.0467 8.564 47.2894 8.172C47.3174 8.12533 47.3501 8.09733 47.3874 8.088C47.4341 8.07867 47.4807 8.088 47.5274 8.116L48.4374 8.634C48.4841 8.67133 48.5121 8.70867 48.5214 8.746C48.5307 8.78333 48.5214 8.83 48.4934 8.886C48.3534 9.15667 48.2461 9.41333 48.1714 9.656C48.0967 9.89867 48.0594 10.132 48.0594 10.356C48.0594 10.8973 48.2507 11.3407 48.6334 11.686C49.0254 12.0313 49.6134 12.204 50.3974 12.204C50.7707 12.204 51.1347 12.1713 51.4894 12.106C51.8441 12.0407 52.1334 11.9333 52.3574 11.784C52.5814 11.644 52.6934 11.476 52.6934 11.28C52.6934 11.084 52.6187 10.9393 52.4694 10.846C52.3201 10.7433 52.0774 10.6547 51.7414 10.58C50.9387 10.4027 50.3227 10.132 49.8934 9.768C49.4641 9.39467 49.2494 8.844 49.2494 8.116C49.2494 7.71467 49.3427 7.332 49.5294 6.968C49.7161 6.59467 49.9727 6.27733 50.2994 6.016C50.6354 5.74533 51.0087 5.568 51.4194 5.484C51.6621 5.428 51.9141 5.40933 52.1754 5.428C52.4461 5.43733 52.7167 5.48867 52.9874 5.582C53.0434 5.59133 53.0807 5.61467 53.0994 5.652C53.1181 5.68933 53.1227 5.736 53.1134 5.792L52.9734 6.912C52.9641 6.968 52.9407 7.01 52.9034 7.038C52.8661 7.05667 52.8194 7.066 52.7634 7.066C52.2687 6.97267 51.8674 6.95867 51.5594 7.024C51.2421 7.08933 51.0041 7.21067 50.8454 7.388C50.6867 7.56533 50.6074 7.752 50.6074 7.948C50.6074 8.228 50.7007 8.452 50.8874 8.62C51.0834 8.77867 51.3634 8.90933 51.7274 9.012C51.8207 9.03067 51.9234 9.054 52.0354 9.082C52.7074 9.24067 53.2067 9.49267 53.5334 9.838C53.8694 10.174 54.0374 10.636 54.0374 11.224C54.0374 11.7653 53.8694 12.2273 53.5334 12.61C53.1974 12.9927 52.7494 13.2773 52.1894 13.464C51.6387 13.66 51.0367 13.758 50.3834 13.758ZM55.1184 11C55.0437 11 55.0064 10.958 55.0064 10.874V3.02C55.0064 2.94533 55.0437 2.908 55.1184 2.908H56.2524C56.3364 2.908 56.3784 2.94533 56.3784 3.02V10.874C56.3784 10.958 56.3364 11 56.2524 11H55.1184ZM57.1701 13.66C56.7408 13.7627 56.2788 13.7627 55.7841 13.66C55.7001 13.6413 55.6581 13.5853 55.6581 13.492L55.7001 12.302C55.7001 12.2553 55.7188 12.218 55.7561 12.19C55.7841 12.162 55.8261 12.1527 55.8821 12.162C56.2088 12.19 56.5121 12.1807 56.7921 12.134C57.2401 12.0687 57.5808 11.882 57.8141 11.574C58.0475 11.2753 58.1641 10.8647 58.1641 10.342C58.1641 9.98733 58.1035 9.586 57.9821 9.138C57.8608 8.68067 57.7021 8.172 57.5061 7.612C57.4781 7.56533 57.4735 7.52333 57.4921 7.486C57.5108 7.43933 57.5388 7.402 57.5761 7.374L58.5981 6.884C58.6541 6.856 58.7008 6.85133 58.7381 6.87C58.7755 6.87933 58.8035 6.912 58.8221 6.968C58.9715 7.332 59.1115 7.70067 59.2421 8.074C59.4195 8.55 59.6388 8.9 59.9001 9.124C60.1708 9.33867 60.5161 9.446 60.9361 9.446C61.0668 9.446 61.1788 9.52533 61.2721 9.684C61.3655 9.83333 61.4121 10.0107 61.4121 10.216C61.4121 10.4307 61.3655 10.6173 61.2721 10.776C61.1788 10.9253 61.0668 11 60.9361 11C60.5535 11 60.1755 10.9207 59.8021 10.762C59.4288 10.594 59.1395 10.3467 58.9341 10.02L59.5221 9.138C59.5408 9.24067 59.5595 9.38533 59.5781 9.572C59.5968 9.86133 59.6061 10.104 59.6061 10.3C59.5968 10.944 59.4895 11.4993 59.2841 11.966C59.0788 12.442 58.7941 12.82 58.4301 13.1C58.0661 13.38 57.6461 13.5667 57.1701 13.66ZM60.7249 11C60.5849 11 60.4729 10.9253 60.3889 10.776C60.2956 10.6173 60.2489 10.4353 60.2489 10.23C60.2396 10.0153 60.2816 9.83333 60.3749 9.684C60.4683 9.52533 60.5849 9.446 60.7249 9.446C60.7623 9.446 60.7996 9.446 60.8369 9.446C61.3316 9.43667 61.6956 9.334 61.9289 9.138C62.1623 8.942 62.2789 8.64333 62.2789 8.242C62.2789 8.046 62.2509 7.82667 62.1949 7.584C62.1483 7.34133 62.0736 7.07533 61.9709 6.786L61.8869 6.562C61.8496 6.45 61.8776 6.37067 61.9709 6.324L63.0489 5.862C63.1049 5.84333 63.1516 5.84333 63.1889 5.862C63.2263 5.87133 63.2543 5.904 63.2729 5.96C63.4503 6.38933 63.5856 6.79067 63.6789 7.164C63.7723 7.528 63.8189 7.88267 63.8189 8.228C63.8189 9.04 63.5763 9.698 63.0909 10.202C62.6056 10.706 61.8683 10.972 60.8789 11C60.8323 11 60.7809 11 60.7249 11ZM61.3409 13.45C61.3129 13.4407 61.2943 13.4173 61.2849 13.38C61.2756 13.3427 61.2803 13.31 61.2989 13.282L61.8869 12.162C61.9336 12.0873 61.9943 12.0687 62.0689 12.106L63.1609 12.708C63.1983 12.7267 63.2216 12.75 63.2309 12.778C63.2403 12.8153 63.2356 12.848 63.2169 12.876L62.6429 14.01C62.6243 14.038 62.5963 14.0567 62.5589 14.066C62.5216 14.0847 62.4843 14.0847 62.4469 14.066L61.3409 13.45ZM69.8275 13.758C68.9969 13.758 68.2969 13.6133 67.7275 13.324C67.1582 13.044 66.7335 12.6567 66.4535 12.162C66.1735 11.6767 66.0335 11.1307 66.0335 10.524C66.0335 10.1413 66.0895 9.754 66.2015 9.362C66.3135 8.96067 66.4909 8.564 66.7335 8.172C66.7615 8.12533 66.7942 8.09733 66.8315 8.088C66.8782 8.07867 66.9249 8.088 66.9715 8.116L67.8815 8.634C67.9282 8.67133 67.9562 8.70867 67.9655 8.746C67.9749 8.78333 67.9655 8.83 67.9375 8.886C67.7975 9.15667 67.6902 9.41333 67.6155 9.656C67.5409 9.89867 67.5035 10.132 67.5035 10.356C67.5035 10.8973 67.6949 11.3407 68.0775 11.686C68.4695 12.0313 69.0575 12.204 69.8415 12.204C70.2149 12.204 70.5789 12.1713 70.9335 12.106C71.2882 12.0407 71.5775 11.9333 71.8015 11.784C72.0255 11.644 72.1375 11.476 72.1375 11.28C72.1375 11.084 72.0629 10.9393 71.9135 10.846C71.7642 10.7433 71.5215 10.6547 71.1855 10.58C70.3829 10.4027 69.7669 10.132 69.3375 9.768C68.9082 9.39467 68.6935 8.844 68.6935 8.116C68.6935 7.71467 68.7869 7.332 68.9735 6.968C69.1602 6.59467 69.4169 6.27733 69.7435 6.016C70.0795 5.74533 70.4529 5.568 70.8635 5.484C71.1062 5.428 71.3582 5.40933 71.6195 5.428C71.8902 5.43733 72.1609 5.48867 72.4315 5.582C72.4875 5.59133 72.5249 5.61467 72.5435 5.652C72.5622 5.68933 72.5669 5.736 72.5575 5.792L72.4175 6.912C72.4082 6.968 72.3849 7.01 72.3475 7.038C72.3102 7.05667 72.2635 7.066 72.2075 7.066C71.7129 6.97267 71.3115 6.95867 71.0035 7.024C70.6862 7.08933 70.4482 7.21067 70.2895 7.388C70.1309 7.56533 70.0515 7.752 70.0515 7.948C70.0515 8.228 70.1449 8.452 70.3315 8.62C70.5275 8.77867 70.8075 8.90933 71.1715 9.012C71.2649 9.03067 71.3675 9.054 71.4795 9.082C72.1515 9.24067 72.6509 9.49267 72.9775 9.838C73.3135 10.174 73.4815 10.636 73.4815 11.224C73.4815 11.7653 73.3135 12.2273 72.9775 12.61C72.6415 12.9927 72.1935 13.2773 71.6335 13.464C71.0829 13.66 70.4809 13.758 69.8275 13.758ZM74.5625 11C74.4878 11 74.4505 10.958 74.4505 10.874V3.02C74.4505 2.94533 74.4878 2.908 74.5625 2.908H75.6965C75.7805 2.908 75.8225 2.94533 75.8225 3.02V10.874C75.8225 10.958 75.7805 11 75.6965 11H74.5625ZM82.7895 11C82.3508 11 81.9448 10.9253 81.5715 10.776C81.2075 10.6173 80.9135 10.398 80.6895 10.118C80.2041 10.3887 79.6395 10.524 78.9955 10.524C78.5568 10.524 78.1555 10.454 77.7915 10.314C77.4275 10.1647 77.1335 9.93133 76.9095 9.614C76.6855 9.29667 76.5735 8.88133 76.5735 8.368C76.5735 7.85467 76.7228 7.38333 77.0215 6.954C77.3295 6.51533 77.7355 6.16533 78.2395 5.904C78.7528 5.63333 79.3081 5.484 79.9055 5.456V5.022C79.9055 4.97533 79.9195 4.938 79.9475 4.91C79.9848 4.87267 80.0315 4.854 80.0875 4.854H81.1095C81.1655 4.854 81.2075 4.868 81.2355 4.896C81.2635 4.924 81.2775 4.966 81.2775 5.022V7.92C81.2775 8.41467 81.3988 8.79267 81.6415 9.054C81.8841 9.31533 82.2668 9.446 82.7895 9.446C82.9295 9.446 83.0415 9.52533 83.1255 9.684C83.2188 9.83333 83.2655 10.0153 83.2655 10.23C83.2655 10.4353 83.2188 10.6173 83.1255 10.776C83.0415 10.9253 82.9295 11 82.7895 11ZM79.0235 8.956C79.3968 8.956 79.7515 8.886 80.0875 8.746C79.9941 8.48467 79.9335 8.172 79.9055 7.808V7.654V6.968C79.5788 6.97733 79.2661 7.04267 78.9675 7.164C78.6688 7.276 78.4261 7.43 78.2395 7.626C78.0621 7.822 77.9735 8.032 77.9735 8.256C77.9735 8.48 78.0668 8.65267 78.2535 8.774C78.4495 8.89533 78.7061 8.956 79.0235 8.956ZM82.5841 11C82.4534 11 82.3414 10.9253 82.2481 10.776C82.1547 10.6173 82.1081 10.4353 82.1081 10.23C82.1081 10.0153 82.1547 9.83333 82.2481 9.684C82.3414 9.52533 82.4534 9.446 82.5841 9.446H83.2701C84.0167 9.446 84.6281 9.362 85.1041 9.194C85.5894 9.01667 85.9207 8.76 86.0981 8.424C85.9581 8.55467 85.7901 8.65733 85.5941 8.732C85.3981 8.79733 85.1601 8.83 84.8801 8.83C84.4507 8.83 84.0681 8.75067 83.7321 8.592C83.3961 8.424 83.1301 8.17667 82.9341 7.85C82.7474 7.52333 82.6541 7.13133 82.6541 6.674C82.6541 6.226 82.7521 5.792 82.9481 5.372C83.1534 4.952 83.4334 4.61133 83.7881 4.35C84.1427 4.08867 84.5347 3.958 84.9641 3.958C85.5334 3.958 86.0094 4.14 86.3921 4.504C86.7841 4.85867 87.0687 5.31133 87.2461 5.862C87.4234 6.41267 87.5121 6.97733 87.5121 7.556C87.5121 8.77867 87.1434 9.66067 86.4061 10.202C85.6781 10.734 84.6281 11 83.2561 11H82.5841ZM84.9501 7.346C85.2861 7.346 85.5427 7.27133 85.7201 7.122C85.9067 6.96333 86.0001 6.76267 86.0001 6.52C86.0001 6.33333 85.9534 6.15133 85.8601 5.974C85.7761 5.79667 85.6547 5.652 85.4961 5.54C85.3467 5.41867 85.1741 5.358 84.9781 5.358C84.6701 5.358 84.4181 5.47933 84.2221 5.722C84.0261 5.95533 83.9281 6.22133 83.9281 6.52C83.9281 6.772 84.0167 6.97267 84.1941 7.122C84.3714 7.27133 84.6234 7.346 84.9501 7.346ZM83.6901 2.362C83.6621 2.35267 83.6434 2.32933 83.6341 2.292C83.6247 2.25467 83.6294 2.222 83.6481 2.194L84.2361 1.074C84.2827 0.999333 84.3434 0.980666 84.4181 1.018L85.5101 1.62C85.5474 1.63867 85.5707 1.66667 85.5801 1.704C85.5894 1.732 85.5847 1.76 85.5661 1.788L84.9921 2.922C84.9734 2.95 84.9454 2.97333 84.9081 2.992C84.8707 3.00133 84.8334 2.99667 84.7961 2.978L83.6901 2.362ZM91.4385 11C90.9438 11 90.4818 10.9207 90.0525 10.762C89.6232 10.594 89.2592 10.2813 88.9605 9.824C88.6712 9.36667 88.5265 8.72267 88.5265 7.892V3.02C88.5265 2.94533 88.5638 2.908 88.6385 2.908H89.7725C89.8565 2.908 89.8985 2.94533 89.8985 3.02V7.934C89.8985 8.466 90.0292 8.85333 90.2905 9.096C90.5518 9.32933 90.9345 9.446 91.4385 9.446C91.5692 9.446 91.6812 9.52533 91.7745 9.684C91.8678 9.83333 91.9145 10.0107 91.9145 10.216C91.9145 10.4307 91.8678 10.6173 91.7745 10.776C91.6812 10.9253 91.5692 11 91.4385 11ZM91.2285 11C91.0978 11 90.9858 10.9253 90.8925 10.776C90.7992 10.6173 90.7525 10.4307 90.7525 10.216C90.7525 10.0107 90.7992 9.83333 90.8925 9.684C90.9858 9.52533 91.0978 9.446 91.2285 9.446H91.2985C91.9518 9.446 92.5072 9.362 92.9645 9.194C93.4312 9.01667 93.6645 8.718 93.6645 8.298C93.6645 7.98067 93.5245 7.67733 93.2445 7.388C92.9645 7.09867 92.5258 6.758 91.9285 6.366C91.7605 6.254 91.5832 6.142 91.3965 6.03C91.2192 5.918 91.0372 5.80133 90.8505 5.68C90.7852 5.63333 90.7525 5.56333 90.7525 5.47L90.7945 4.14C90.7945 4.03733 90.8458 3.972 90.9485 3.944L95.0925 2.656C95.1485 2.63733 95.1952 2.63733 95.2325 2.656C95.2698 2.67467 95.2932 2.712 95.3025 2.768L95.6385 3.874C95.6478 3.93 95.6432 3.97667 95.6245 4.014C95.6058 4.05133 95.5685 4.07467 95.5125 4.084L92.5725 5.036C93.4685 5.54 94.1172 6.072 94.5185 6.632C94.9292 7.192 95.1345 7.74733 95.1345 8.298C95.1345 8.76467 95.0038 9.20333 94.7425 9.614C94.4812 10.0247 94.0752 10.3607 93.5245 10.622C92.9832 10.874 92.2972 11 91.4665 11H91.2285Z" fill="black"/>
</svg>
