<svg width="393" height="853" viewBox="0 0 393 853" fill="none" xmlns="http://www.w3.org/2000/svg">
<g clip-path="url(#clip0_134_712)">
<rect width="393" height="853" fill="#F6F7F2"/>
<g clip-path="url(#clip1_134_712)">
<path d="M314.025 239.224L293.316 252.203C293.316 252.203 312.415 254.47 328.304 260.2C351.047 268.401 342.442 225.57 314.025 239.224Z" fill="white"/>
<path d="M300.468 16.9639L300.687 41.4498C300.687 41.4498 312.594 26.3065 325.767 15.7135C344.622 0.553843 303.702 -14.4672 300.468 16.9639Z" fill="white"/>
<path d="M231.017 14.8735C239.632 21.0983 251.371 22.4601 262.099 18.0892C270.44 14.6887 278.053 5.80005 279.742 0.224937C283.169 -11.0748 270.153 -21.7819 260.437 -23.315C254.581 -24.2392 249.164 -20.9338 243.588 -18.5173C237.393 -15.8371 232.109 -17.9139 230.388 -22.187C227.145 -30.233 237.821 -35.3949 246.017 -31.921C246.99 -35.7591 238.938 -47.1431 230.407 -43.4653C226.733 -31.0294 226.289 -29.4039 220.837 -10.3735C218.384 -1.81374 223.648 9.55122 231.017 14.8763V14.8735Z" fill="white"/>
<path d="M249.449 95.9967C263.015 98.7476 267.925 75.6534 264.723 61.6708C258.702 35.3664 228.062 27.7091 228.062 27.7091L239.893 79.3991C242.064 88.8804 245.518 95.2003 249.446 95.9967H249.449Z" fill="white"/>
<path d="M221.008 80.9377C221.008 80.9377 230.336 92.1749 231.616 80.0243C232.107 75.3544 225.966 70.6301 225.966 70.6301L228.927 60.5536C228.927 60.5536 228.054 55.2584 223.852 54.6251C218.779 53.8612 218.479 65.0033 218.479 65.0033L223.982 69.9288L221.013 80.9377H221.008Z" fill="white"/>
<path d="M294.807 84.8438C290.196 84.031 285.072 89.8508 285.072 89.8508L275.25 86.2002C275.25 86.2002 269.923 86.7112 269.004 90.8701C267.895 95.8934 278.961 96.9563 278.961 96.9563L284.24 91.7889L294.989 95.5156C294.989 95.5156 306.809 86.9559 294.807 84.8438Z" fill="white"/>
<path d="M370.534 234.768C360.831 234.768 353.915 236.731 352.262 240.392C346.555 253.035 367.904 262.997 382.213 262.997C409.131 262.997 423.426 234.766 423.426 234.766H370.534V234.768Z" fill="white"/>
<path d="M234.885 152.017C246.963 145.24 235.68 124.514 224.166 115.998C202.505 99.9762 174.286 114.184 174.286 114.184L216.852 145.667C224.66 151.441 231.386 153.98 234.885 152.017Z" fill="white"/>
<path d="M377.32 229.982C381.749 231.506 387.714 226.562 387.714 226.562L396.847 231.708C396.847 231.708 402.19 232.039 403.747 228.073C405.625 223.287 394.86 220.5 394.86 220.5L388.839 224.776L378.802 219.41C378.802 219.41 365.792 226.013 377.32 229.982Z" fill="white"/>
<path d="M374.538 138.836C371.29 142.22 373.245 149.728 373.245 149.728L364.738 155.858C364.738 155.858 362.184 160.574 365.114 163.662C368.65 167.389 375.712 158.78 375.712 158.78L374.386 151.503L383.471 144.642C383.471 144.642 382.991 130.029 374.541 138.833L374.538 138.836Z" fill="white"/>
<path d="M338.3 65.8732C380.586 24.5804 298.028 44.9373 298.028 44.9373L281.808 12.5522L272.579 45.6467C272.579 45.6467 296.013 107.166 338.3 65.8732Z" fill="white"/>
<path d="M346.98 69.3145C321.283 88.3068 358.448 106.698 370.067 72.5329L384.921 28.9703C384.921 28.9703 364.938 56.044 346.98 69.3145Z" fill="white"/>
<path d="M400.119 72.9487C402.071 69.5075 397.316 56.3892 388.118 57.6695C381.289 68.6838 380.429 70.1354 370.144 87.0347C365.516 94.6376 367.587 106.995 373.286 114.087C379.947 122.38 390.907 126.811 402.405 125.443C411.348 124.381 421.035 117.832 424.139 112.907C430.428 102.92 420.709 89.1386 411.747 85.0803C406.344 82.6338 400.247 84.3817 394.234 85.2298C387.554 86.1703 383.007 82.7616 382.476 78.1841C381.478 69.5645 393.136 67.4226 400.119 72.9515V72.9487Z" fill="white"/>
<path d="M359.346 144.235C371.879 138.347 362.111 116.859 351.237 107.536C330.78 89.9949 301.617 102.135 301.617 102.135L341.816 136.602C349.19 142.924 355.718 145.939 359.348 144.235H359.346Z" fill="white"/>
<path d="M405.121 19.5924L397.98 21.449L390.495 12.8648C390.495 12.8648 375.997 14.4114 385.369 22.2209C388.972 25.2219 396.297 22.7184 396.297 22.7184L403.015 30.778C403.015 30.778 407.892 32.9879 410.749 29.832C414.198 26.0238 405.118 19.5924 405.118 19.5924H405.121Z" fill="white"/>
<path d="M276.472 145.037C272.848 147.121 273.745 154.414 273.745 154.414L264.617 157.426C264.617 157.426 261.491 160.906 263.934 164.526C266.884 168.895 274.933 163.243 274.933 163.243L274.618 156.339L284.408 152.843C284.408 152.843 285.904 139.616 276.472 145.037Z" fill="white"/>
<path d="M435.734 130.652C435.734 130.652 370.585 122.301 386.908 179.175C403.231 236.049 424.337 153.477 424.337 153.477L460.466 154.442L435.734 130.652Z" fill="white"/>
<path d="M375.243 200.364C391.224 168.615 350.199 170.68 350.199 170.68L348.472 211.756C348.472 211.756 359.262 232.113 375.243 200.364Z" fill="white"/>
<path d="M248.571 244.916C248.571 244.916 253.101 264.563 272.005 259.937C290.909 255.31 294.761 213.862 294.761 213.862L248.571 244.913V244.916Z" fill="white"/>
<path d="M244.293 105.513C244.293 105.513 234.338 123.035 251.36 132.486C268.383 141.938 299.242 114.089 299.242 114.089L244.293 105.516V105.513Z" fill="white"/>
<path d="M264.604 221.835C269.86 213.699 271.151 204.634 269.898 196.493C270.793 196.449 271.696 196.373 272.615 196.254C297.117 193.032 283.695 174.663 283.695 174.663L266.016 184.682C261.746 176.652 254.86 171.393 247.847 172.173C237.008 173.377 241.091 185.652 252.564 192.304L227.937 206.259C227.937 206.259 250.235 244.07 264.604 221.832V221.835Z" fill="white"/>
<path d="M453.141 206.893C432.616 203.112 392.455 211.726 392.455 211.726C392.455 211.726 432.128 222.724 454.559 224.208C472.66 225.407 477.218 211.326 453.141 206.89V206.893Z" fill="white"/>
<path d="M425.735 -21.6977C448.02 -77.6037 379.67 -24.4676 379.67 -24.4676L351.242 -47.8499L356.306 -13.263C356.306 -13.263 403.451 34.2084 425.735 -21.6977Z" fill="white"/>
<path d="M368.739 27.0105C376.775 13.7563 346.81 -9.78907 346.81 -9.78907L348.361 34.0779C348.361 34.0779 360.704 40.2646 368.739 27.0105Z" fill="white"/>
<path d="M296.912 145.341C289.643 165.565 304.494 178.286 318.031 185.889C304.494 187.05 301.138 197.474 304.836 205.447C312.722 222.444 349.308 225.801 335.389 199.635C332.326 193.872 331.472 192.211 329.544 188.689L341.893 151.188C336.68 143.846 305.985 120.086 296.909 145.341H296.912Z" fill="white"/>
<path d="M36.6967 72.3861C23.5943 92.7484 67.1522 94.0151 60.3015 63.174L52.3663 40.0145C52.3663 40.0145 45.8518 58.1561 36.6967 72.3861Z" fill="white"/>
<path d="M-37.0022 16.6485C-28.3866 22.8733 -16.6479 24.2352 -5.9204 19.8642C2.4214 16.4637 10.0339 7.57506 11.7229 1.99995C15.1496 -9.29978 2.13403 -20.0069 -7.58225 -21.54C-13.438 -22.4642 -18.8547 -19.1588 -24.4312 -16.7423C-30.6259 -14.0621 -35.9097 -16.1389 -37.6312 -20.4119C-40.8735 -28.4579 -30.1975 -33.6199 -22.0021 -30.146C-21.0289 -33.9841 -29.0806 -45.3681 -37.6122 -41.6903C-41.2856 -29.2544 -41.7302 -27.6289 -47.1821 -8.59847C-49.6355 -0.0387316 -44.3707 11.3262 -37.0022 16.6513V16.6485Z" fill="white"/>
<path d="M169.932 222.65C159.508 231.781 174.815 249.727 187.833 255.677C212.324 266.871 237.011 247.128 237.011 247.128L188.882 225.132C180.055 221.098 172.95 220.008 169.93 222.65H169.932Z" fill="white"/>
<path d="M209.679 219.595L202.765 210.541C202.765 210.541 188.196 211.139 197.042 219.541C200.442 222.77 207.916 220.753 207.916 220.753L214.097 229.234C214.097 229.234 218.823 231.757 221.878 228.796C225.568 225.222 216.925 218.209 216.925 218.209L209.679 219.595Z" fill="white"/>
<path d="M136.787 229.791L138.978 222.729L150.199 220.875C150.199 220.875 156.529 207.706 144.972 211.576C140.531 213.063 138.788 220.625 138.788 220.625L128.416 222.101C128.416 222.101 123.972 225.094 125.141 229.191C126.551 234.138 136.787 229.791 136.787 229.791Z" fill="white"/>
<path d="M4.88562 244.228L0.53715 234.673C0.53715 234.673 -3.58359 231.248 -7.17298 233.529C-11.5052 236.285 -4.45112 244.899 -4.45112 244.899L2.92555 245.005L7.87587 255.272C7.87587 255.272 22.2659 257.631 15.2905 247.612C12.6093 243.763 4.88291 244.228 4.88291 244.228H4.88562Z" fill="white"/>
<path d="M172.592 137.091C175.411 140.84 183.116 140.092 183.116 140.092L187.811 149.481C187.811 149.481 192.054 152.754 195.557 150.34C199.786 147.429 192.42 139.078 192.42 139.078L185.046 139.241L179.725 129.165C179.725 129.165 165.259 127.335 172.595 137.091H172.592Z" fill="white"/>
<path d="M139.715 122.141L129.901 118.468C129.901 118.468 124.571 118.966 123.644 123.125C122.525 128.145 133.588 129.235 133.588 129.235L138.88 124.082L149.621 127.83C149.621 127.83 161.46 119.295 149.464 117.156C144.853 116.335 139.718 122.141 139.718 122.141H139.715Z" fill="white"/>
<path d="M8.97915 28.7773C-18.1039 81.3617 53.7868 35.8638 53.7868 35.8638L79.3924 61.4397L77.7061 27.1165C77.7061 27.1165 36.0649 -23.8098 8.97915 28.7746V28.7773Z" fill="white"/>
<path d="M87.6826 65.3812C61.9849 84.3735 99.1502 102.765 110.77 68.5996L125.623 25.037C125.623 25.037 105.64 52.1107 87.6826 65.3812Z" fill="white"/>
<path d="M119.342 158.535L163.906 133.669C163.906 133.669 127.34 141.106 102.683 138.668C67.3963 135.177 84.4188 178.063 119.342 158.535Z" fill="white"/>
<path d="M54.5569 170.928C54.5569 170.928 62.2453 188.602 65.3332 205.248C69.7548 229.071 102.287 200.005 76.1854 182.298L54.5569 170.925V170.928Z" fill="white"/>
<path d="M207.851 86.4992C212.547 67.7216 206.986 30.0332 206.986 30.0332C206.986 30.0332 194.516 66.1124 191.824 86.7873C189.652 103.472 202.345 108.525 207.854 86.4992H207.851Z" fill="white"/>
<path d="M117.957 88.8559C119.491 97.7527 126.529 107.106 131.601 109.949C141.881 115.715 155.089 105.252 158.654 96.0592C160.804 90.5195 158.738 84.5094 157.575 78.532C156.285 71.8941 159.435 67.1589 163.968 66.3842C172.499 64.9245 175.254 76.4825 170.119 83.7728C173.652 85.5424 186.461 80.0841 184.696 70.9427C173.364 64.6907 171.873 63.9079 154.493 54.5082C146.674 50.2786 134.477 53.0132 127.719 59.0939C119.816 66.2048 115.986 77.4148 117.957 88.8559Z" fill="white"/>
<path d="M107.381 128.847C117.68 119.575 102.13 101.841 89.0329 96.0701C64.3898 85.2107 39.9744 105.29 39.9744 105.29L88.3985 126.626C97.2798 130.54 104.399 131.532 107.384 128.847H107.381Z" fill="white"/>
<path d="M34.6065 136.561C39.2885 136.585 43.3658 129.988 43.3658 129.988L53.6596 131.937C53.6596 131.937 58.8268 130.537 59.0355 126.281C59.2876 121.143 48.2023 121.953 48.2023 121.953L43.862 127.933L32.6411 126.069C32.6411 126.069 22.4205 136.496 34.6065 136.558V136.561Z" fill="white"/>
<path d="M154.124 22.4112C154.124 22.4112 159.47 22.6504 160.959 18.6573C162.753 13.8379 151.945 11.2392 151.945 11.2392L145.999 15.6183L135.874 10.4292C135.874 10.4292 122.98 17.2547 134.572 21.0222C139.027 22.471 144.907 17.4232 144.907 17.4232L154.127 22.4112H154.124Z" fill="white"/>
<path d="M6.01882 146.099C3.19936 141.777 -4.78729 147.241 -4.78729 147.241L-4.5921 154.023L-14.2514 157.35C-14.2514 157.35 -15.9404 170.324 -6.60096 165.103C-3.01157 163.097 -3.77066 155.92 -3.77066 155.92L5.22991 153.061C5.22991 153.061 8.35301 149.677 6.01882 146.097V146.099Z" fill="white"/>
<path d="M52.7485 169.251L88.8782 170.216L64.1456 146.426C64.1456 146.426 -1.00279 138.075 15.3202 194.949C31.6433 251.823 52.7485 169.251 52.7485 169.251Z" fill="white"/>
<path d="M117.74 211.873C141.795 185.739 101.78 176.438 101.78 176.438L88.8784 215.463C88.8784 215.463 93.685 238.006 117.74 211.873Z" fill="white"/>
<path d="M39.8848 256.261C58.8728 260.521 80.6558 225.083 80.6558 225.083L25.5219 232.379C25.5219 232.379 20.8942 252.002 39.8821 256.261H39.8848Z" fill="white"/>
<path d="M7.74844 88.0268C-10.3313 95.2383 -8.4065 136.822 -8.4065 136.822L33.0368 99.6419C33.0368 99.6419 25.8309 80.8153 7.74844 88.0296V88.0268Z" fill="white"/>
<path d="M-18.9416 205.748C-18.7897 206.632 -18.6027 207.523 -18.3722 208.423C-12.1776 232.412 4.35692 216.801 4.35692 216.801L-7.72879 200.437C-0.306026 195.204 4.056 187.705 2.42397 180.822C-0.0972786 170.186 -11.7492 175.753 -16.9246 187.985L-33.76 165.19C-33.76 165.19 -68.4501 192.016 -44.6772 203.587C-35.9803 207.82 -26.8496 207.991 -18.9443 205.746L-18.9416 205.748Z" fill="white"/>
<path d="M96.2604 240.857C76.8278 241.066 73.111 256.482 99.191 259.238C121.427 261.589 163.621 249.08 163.621 249.08C163.621 249.08 120.34 240.596 96.2604 240.857Z" fill="white"/>
<path d="M158.576 -23.8478C180.86 -79.7539 112.51 -26.6177 112.51 -26.6177L84.0825 -50L89.1467 -15.4131C89.1467 -15.4131 136.291 32.0583 158.576 -23.8478Z" fill="white"/>
<path d="M71.1917 -4.66518L89.0274 35.4207C89.0274 35.4207 102.783 36.5162 105.28 21.2098C107.777 5.90334 71.1917 -4.66518 71.1917 -4.66518Z" fill="white"/>
<path d="M178.605 17.9071L153.978 31.8625C153.978 31.8625 176.276 69.6733 190.645 47.4353C195.901 39.2997 197.192 30.2343 195.939 22.0932C196.834 22.0497 197.737 21.9736 198.656 21.854C223.158 18.6329 209.735 0.26299 209.735 0.26299L192.057 10.2824C187.787 2.25274 180.901 -3.00706 173.888 -2.22692C163.049 -1.02274 167.132 11.2528 178.605 17.9044V17.9071Z" fill="white"/>
<path d="M211.164 163.477C204.62 166.421 202.736 167.236 198.729 169.093L158.562 152.672C150.126 157.861 121.782 189.89 148.773 201.788C170.388 211.315 185.442 195.911 194.792 181.57C195.047 196.569 206.219 201.049 215.233 197.575C234.452 190.165 240.882 150.114 211.161 163.477H211.164Z" fill="white"/>
<path d="M135.73 44.8313C140.992 49.8274 146.536 39.9765 141.906 32.8003C141.906 32.8003 130.468 39.8379 135.73 44.8313Z" fill="white"/>
<path d="M123.241 175.986C128.503 180.983 134.047 171.132 129.416 163.955C129.416 163.955 117.978 170.993 123.241 175.986Z" fill="white"/>
<path d="M309.853 218.867C309.853 218.867 298.415 225.904 303.678 230.898C308.94 235.894 314.484 226.043 309.853 218.867Z" fill="white"/>
<path d="M16.1282 75.4658C21.3903 80.462 26.9343 70.6111 22.3039 63.4349C22.3039 63.4349 10.8662 70.4724 16.1282 75.4658Z" fill="white"/>
<path d="M330.161 27.7498C335.424 32.746 340.968 22.8951 336.337 15.7189C336.337 15.7189 324.899 22.7564 330.161 27.7498Z" fill="white"/>
</g>
<g clip-path="url(#clip2_134_712)">
<path d="M300.468 757.964L300.687 782.45C300.687 782.45 312.594 767.306 325.767 756.713C344.622 741.554 303.702 726.533 300.468 757.964Z" fill="white"/>
<path d="M322.5 695.289C303.829 690.361 266.179 695.488 266.179 695.488C266.179 695.488 302.01 708.418 322.598 711.362C339.211 713.738 344.4 701.071 322.5 695.287V695.289Z" fill="white"/>
<path d="M231.017 755.874C239.632 762.098 251.371 763.46 262.099 759.089C270.44 755.689 278.053 746.8 279.742 741.225C283.169 729.925 270.153 719.218 260.437 717.685C254.581 716.761 249.164 720.066 243.588 722.483C237.393 725.163 232.109 723.086 230.388 718.813C227.145 710.767 237.821 705.605 246.017 709.079C246.99 705.241 238.938 693.857 230.407 697.535C226.733 709.971 226.289 711.596 220.837 730.627C218.384 739.186 223.648 750.551 231.017 755.876V755.874Z" fill="white"/>
<path d="M249.449 836.997C263.015 839.748 267.925 816.653 264.723 802.671C258.702 776.366 228.062 768.709 228.062 768.709L239.893 820.399C242.064 829.88 245.518 836.2 249.446 836.997H249.449Z" fill="white"/>
<path d="M221.008 821.938C221.008 821.938 230.336 833.175 231.616 821.024C232.107 816.354 225.966 811.63 225.966 811.63L228.927 801.554C228.927 801.554 228.054 796.258 223.852 795.625C218.779 794.861 218.479 806.003 218.479 806.003L223.982 810.929L221.013 821.938H221.008Z" fill="white"/>
<path d="M294.807 825.844C290.196 825.031 285.072 830.851 285.072 830.851L275.25 827.2C275.25 827.2 269.923 827.711 269.004 831.87C267.895 836.893 278.961 837.956 278.961 837.956L284.24 832.789L294.989 836.516C294.989 836.516 306.809 827.956 294.807 825.844Z" fill="white"/>
<path d="M234.885 893.017C246.963 886.24 235.68 865.514 224.166 856.998C202.505 840.976 174.286 855.184 174.286 855.184L216.852 886.667C224.66 892.441 231.386 894.979 234.885 893.017Z" fill="white"/>
<path d="M338.3 806.873C380.586 765.58 298.028 785.937 298.028 785.937L281.808 753.552L272.579 786.647C272.579 786.647 296.013 848.166 338.3 806.873Z" fill="white"/>
<path d="M346.98 810.314C321.283 829.307 358.448 847.698 370.067 813.533L384.921 769.97C384.921 769.97 364.938 797.044 346.98 810.314Z" fill="white"/>
<path d="M400.119 813.949C402.071 810.507 397.316 797.389 388.118 798.67C381.289 809.684 380.429 811.135 370.144 828.035C365.516 835.638 367.587 847.995 373.286 855.087C379.947 863.38 390.907 867.811 402.405 866.443C411.348 865.381 421.035 858.832 424.139 853.907C430.428 843.92 420.709 830.139 411.747 826.08C406.344 823.634 400.247 825.382 394.234 826.23C387.554 827.17 383.007 823.762 382.476 819.184C381.478 810.565 393.136 808.423 400.119 813.951V813.949Z" fill="white"/>
<path d="M359.346 885.235C371.879 879.347 362.111 857.859 351.237 848.536C330.78 830.995 301.617 843.135 301.617 843.135L341.816 877.602C349.19 883.924 355.718 886.939 359.348 885.235H359.346Z" fill="white"/>
<path d="M405.121 760.592L397.98 762.449L390.495 753.865C390.495 753.865 375.997 755.411 385.369 763.221C388.972 766.222 396.297 763.718 396.297 763.718L403.015 771.778C403.015 771.778 407.892 773.988 410.749 770.832C414.198 767.024 405.118 760.592 405.118 760.592H405.121Z" fill="white"/>
<path d="M313.033 719.944L307.383 724.701L296.941 720.183C296.941 720.183 284.516 727.838 296.328 730.839C300.866 731.994 306.407 726.574 306.407 726.574L315.931 730.95C315.931 730.95 321.283 730.839 322.508 726.758C323.988 721.833 313.03 719.944 313.03 719.944H313.033Z" fill="white"/>
<path d="M244.293 846.513C244.293 846.513 234.338 864.035 251.36 873.486C268.383 882.938 299.242 855.089 299.242 855.089L244.293 846.516V846.513Z" fill="white"/>
<path d="M425.735 719.302C448.02 663.396 379.67 716.532 379.67 716.532L351.242 693.15L356.306 727.737C356.306 727.737 403.451 775.208 425.735 719.302Z" fill="white"/>
<path d="M368.739 768.01C376.775 754.756 346.81 731.211 346.81 731.211L348.361 775.078C348.361 775.078 360.704 781.265 368.739 768.01Z" fill="white"/>
<path d="M176.975 705.363L171.486 729.224C171.486 729.224 186.589 717.288 201.868 710.071C223.732 699.745 187.443 675.558 176.975 705.363Z" fill="white"/>
<path d="M36.6967 813.386C23.5943 833.748 67.1522 835.015 60.3015 804.174L52.3663 781.015C52.3663 781.015 45.8518 799.156 36.6967 813.386Z" fill="white"/>
<path d="M56.8856 695.838C35.8616 692.756 -4.68433 703.023 -4.68433 703.023C-4.68433 703.023 36.0948 712.732 58.9703 713.406C77.4323 713.95 81.5477 699.454 56.8856 695.838Z" fill="white"/>
<path d="M-37.0022 757.649C-28.3866 763.873 -16.6479 765.235 -5.9204 760.864C2.4214 757.464 10.0339 748.575 11.7229 743C15.1496 731.7 2.13403 720.993 -7.58225 719.46C-13.438 718.536 -18.8547 721.841 -24.4312 724.258C-30.6259 726.938 -35.9097 724.861 -37.6312 720.588C-40.8735 712.542 -30.1975 707.38 -22.0021 710.854C-21.0289 707.016 -29.0806 695.632 -37.6122 699.31C-41.2856 711.746 -41.7302 713.371 -47.1821 732.402C-49.6355 740.961 -44.3707 752.326 -37.0022 757.651V757.649Z" fill="white"/>
<path d="M8.97915 769.777C-18.1039 822.362 53.7868 776.864 53.7868 776.864L79.3924 802.44L77.7061 768.116C77.7061 768.116 36.0649 717.19 8.97915 769.775V769.777Z" fill="white"/>
<path d="M87.6826 806.381C61.9849 825.374 99.1502 843.765 110.77 809.6L125.623 766.037C125.623 766.037 105.64 793.111 87.6826 806.381Z" fill="white"/>
<path d="M207.851 827.499C212.547 808.722 206.986 771.033 206.986 771.033C206.986 771.033 194.516 807.112 191.824 827.787C189.652 844.472 202.345 849.525 207.854 827.499H207.851Z" fill="white"/>
<path d="M117.957 829.856C119.491 838.753 126.529 848.106 131.601 850.949C141.881 856.715 155.089 846.252 158.654 837.059C160.804 831.519 158.738 825.509 157.575 819.532C156.285 812.894 159.435 808.159 163.968 807.384C172.499 805.925 175.254 817.482 170.119 824.773C173.652 826.542 186.461 821.084 184.696 811.943C173.364 805.691 171.873 804.908 154.493 795.508C146.674 791.279 134.477 794.013 127.719 800.094C119.816 807.205 115.986 818.415 117.957 829.856Z" fill="white"/>
<path d="M107.381 869.847C117.68 860.575 102.13 842.841 89.0329 837.07C64.3898 826.211 39.9744 846.29 39.9744 846.29L88.3985 867.626C97.2798 871.54 104.399 872.532 107.384 869.847H107.381Z" fill="white"/>
<path d="M154.124 763.411C154.124 763.411 159.47 763.65 160.959 759.657C162.753 754.838 151.945 752.239 151.945 752.239L145.999 756.618L135.874 751.429C135.874 751.429 122.98 758.255 134.572 762.022C139.027 763.471 144.907 758.423 144.907 758.423L154.127 763.411H154.124Z" fill="white"/>
<path d="M42.1892 726.574L51.713 730.95C51.713 730.95 57.0646 730.839 58.2899 726.758C59.7701 721.833 48.8122 719.944 48.8122 719.944L43.1625 724.701L32.7196 720.183C32.7196 720.183 20.295 727.838 32.1069 730.839C36.6452 731.994 42.1865 726.574 42.1865 726.574H42.1892Z" fill="white"/>
<path d="M7.74844 829.027C-10.3313 836.238 -8.4065 877.822 -8.4065 877.822L33.0368 840.642C33.0368 840.642 25.8309 821.815 7.74844 829.03V829.027Z" fill="white"/>
<path d="M158.576 717.152C180.86 661.246 112.51 714.382 112.51 714.382L84.0825 691L89.1467 725.587C89.1467 725.587 136.291 773.058 158.576 717.152Z" fill="white"/>
<path d="M71.1917 736.335L89.0274 776.421C89.0274 776.421 102.783 777.516 105.28 762.21C107.777 746.903 71.1917 736.335 71.1917 736.335Z" fill="white"/>
<path d="M205.574 720.235C202.142 721.393 200.808 727.245 200.808 727.245L192.789 728.406C192.789 728.406 189.359 730.727 190.268 733.894C191.366 737.716 199.276 734.337 199.276 734.337L200.957 728.871L209.632 727.416C209.632 727.416 214.504 717.217 205.571 720.235H205.574Z" fill="white"/>
<path d="M178.605 758.907L153.978 772.863C153.978 772.863 176.276 810.673 190.645 788.435C195.901 780.3 197.192 771.234 195.939 763.093C196.834 763.05 197.737 762.974 198.656 762.854C223.158 759.633 209.735 741.263 209.735 741.263L192.057 751.282C187.787 743.253 180.901 737.993 173.888 738.773C163.049 739.977 167.132 752.253 178.605 758.904V758.907Z" fill="white"/>
<path d="M135.73 785.831C140.992 790.827 146.536 780.977 141.906 773.8C141.906 773.8 130.468 780.838 135.73 785.831Z" fill="white"/>
<path d="M16.1282 816.466C21.3903 821.462 26.9343 811.611 22.3039 804.435C22.3039 804.435 10.8662 811.472 16.1282 816.466Z" fill="white"/>
<path d="M330.161 768.75C335.424 773.746 340.968 763.895 336.337 756.719C336.337 756.719 324.899 763.756 330.161 768.75Z" fill="white"/>
</g>
</g>
<defs>
<clipPath id="clip0_134_712">
<rect width="393" height="853" fill="white"/>
</clipPath>
<clipPath id="clip1_134_712">
<rect width="535" height="313" fill="white" transform="translate(-53 -50)"/>
</clipPath>
<clipPath id="clip2_134_712">
<rect width="535" height="313" fill="white" transform="translate(-53 691)"/>
</clipPath>
</defs>
</svg>
