<svg width="392" height="308" viewBox="0 0 392 308" fill="none" xmlns="http://www.w3.org/2000/svg">
<g clip-path="url(#clip0_207_20)">
<path d="M268.609 284.603L253.396 297.376C253.396 297.376 267.426 299.606 279.098 305.245C295.805 313.315 289.484 271.168 268.609 284.603Z" fill="white"/>
<path d="M360.157 17.1028L356.124 40.5823C356.124 40.5823 367.218 28.8372 378.442 21.7356C394.503 11.5739 367.846 -12.2266 360.157 17.1028Z" fill="white"/>
<path d="M258.65 65.8942L258.811 89.9889C258.811 89.9889 267.558 75.0875 277.234 64.6637C291.085 49.7463 261.026 34.9652 258.65 65.8942Z" fill="white"/>
<path d="M274.834 4.22087C261.119 -0.628581 233.462 4.41613 233.462 4.41613C233.462 4.41613 259.783 17.1402 274.906 20.0371C287.11 22.3749 290.921 9.91021 274.834 4.21819V4.22087Z" fill="white"/>
<path d="M207.633 63.8372C213.962 69.9626 222.585 71.3026 230.465 67.0015C236.593 63.6553 242.185 54.9087 243.425 49.4226C245.942 38.3034 236.381 27.7673 229.244 26.2587C224.943 25.3493 220.964 28.6018 216.867 30.9798C212.317 33.6171 208.435 31.5736 207.171 27.3687C204.789 19.4513 212.631 14.3718 218.652 17.7902C219.366 14.0134 213.452 2.81124 207.185 6.43027C204.486 18.6676 204.16 20.2671 200.155 38.9935C198.353 47.4165 202.22 58.5999 207.633 63.8399V63.8372Z" fill="white"/>
<path d="M221.173 143.665C231.138 146.371 234.745 123.646 232.393 109.887C227.97 84.0027 205.462 76.4677 205.462 76.4677L214.153 127.332C215.748 136.662 218.285 142.881 221.171 143.665H221.173Z" fill="white"/>
<path d="M200.28 128.846C200.28 128.846 207.133 139.904 208.073 127.947C208.433 123.352 203.923 118.703 203.923 118.703L206.097 108.788C206.097 108.788 205.456 103.577 202.369 102.954C198.643 102.202 198.422 113.166 198.422 113.166L202.465 118.013L200.284 128.846H200.28Z" fill="white"/>
<path d="M254.492 132.69C251.105 131.89 247.341 137.617 247.341 137.617L240.126 134.024C240.126 134.024 236.212 134.527 235.537 138.62C234.723 143.563 242.852 144.609 242.852 144.609L246.729 139.524L254.625 143.191C254.625 143.191 263.308 134.768 254.492 132.69Z" fill="white"/>
<path d="M310.119 280.219C302.992 280.219 297.912 282.151 296.697 285.754C292.505 298.194 308.188 307.997 318.698 307.997C338.472 307.997 348.973 280.217 348.973 280.217H310.119V280.219Z" fill="white"/>
<path d="M210.475 198.79C219.347 192.122 211.058 171.726 202.601 163.346C186.689 147.58 165.96 161.562 165.96 161.562L197.228 192.541C202.963 198.223 207.904 200.721 210.475 198.79Z" fill="white"/>
<path d="M315.104 275.509C318.358 277.01 322.739 272.144 322.739 272.144L329.448 277.208C329.448 277.208 333.374 277.534 334.517 273.631C335.897 268.921 327.989 266.179 327.989 266.179L323.566 270.387L316.193 265.107C316.193 265.107 306.636 271.604 315.104 275.509Z" fill="white"/>
<path d="M383.572 224.481C382.455 228.852 386.078 234.737 386.078 234.737L382.308 243.748C382.308 243.748 382.065 249.02 384.97 250.556C388.477 252.409 390.518 241.788 390.518 241.788L387.386 235.847L391.315 225.945C391.315 225.945 386.478 213.108 383.57 224.481H383.572Z" fill="white"/>
<path d="M367.686 168.019L365.882 157.063C365.882 157.063 355.994 151.531 359.288 162.709C360.555 167.005 366.155 168.316 366.155 168.316L367.65 178.456C367.65 178.456 370.016 182.674 372.967 181.305C376.53 179.652 372.942 169.797 372.942 169.797L367.686 168.019Z" fill="white"/>
<path d="M313.061 185.82C310.675 189.15 312.111 196.538 312.111 196.538L305.861 202.569C305.861 202.569 303.985 207.21 306.138 210.249C308.735 213.916 313.923 205.445 313.923 205.445L312.949 198.284L319.622 191.533C319.622 191.533 319.27 177.153 313.063 185.817L313.061 185.82Z" fill="white"/>
<path d="M286.441 114.022C317.504 73.389 256.858 93.4207 256.858 93.4207L244.943 61.5529L238.164 94.1188C238.164 94.1188 255.378 154.655 286.441 114.022Z" fill="white"/>
<path d="M292.817 117.408C273.94 136.097 301.241 154.195 309.777 120.575L320.688 77.7088C320.688 77.7088 306.009 104.35 292.817 117.408Z" fill="white"/>
<path d="M350.97 201.877C350.97 201.877 356.618 219.268 358.886 235.649C362.134 259.091 386.032 230.489 366.858 213.065L350.97 201.874V201.877Z" fill="white"/>
<path d="M326.698 83.0959C326.698 83.0959 338.91 116.9 348.222 133.166C355.738 146.291 364.948 140.95 356.399 121.782C349.11 105.441 326.698 83.0959 326.698 83.0959Z" fill="white"/>
<path d="M389.098 151.245C388.081 134.744 378.183 132.524 377.634 154.859C377.164 173.898 386.979 208.992 386.979 208.992C386.979 208.992 390.361 171.694 389.098 151.245Z" fill="white"/>
<path d="M331.852 120.985C333.286 117.598 329.793 104.69 323.036 105.95C318.019 116.788 317.388 118.216 309.832 134.846C306.433 142.327 307.954 154.487 312.14 161.465C317.033 169.626 325.085 173.986 333.531 172.641C340.1 171.595 347.216 165.151 349.496 160.305C354.116 150.477 346.977 136.916 340.393 132.922C336.424 130.515 331.945 132.235 327.528 133.07C322.621 133.995 319.282 130.641 318.891 126.136C318.159 117.655 326.722 115.547 331.852 120.987V120.985Z" fill="white"/>
<path d="M301.901 191.132C311.107 185.338 303.932 164.194 295.944 155.019C280.917 137.759 259.495 149.704 259.495 149.704L289.024 183.621C294.441 189.843 299.236 192.809 301.903 191.132H301.901Z" fill="white"/>
<path d="M335.526 68.4807L330.281 70.3076L324.783 61.8605C324.783 61.8605 314.132 63.3825 321.017 71.0673C323.663 74.0203 329.044 71.5567 329.044 71.5567L333.979 79.4876C333.979 79.4876 337.562 81.6622 339.661 78.5568C342.194 74.8093 335.524 68.4807 335.524 68.4807H335.526Z" fill="white"/>
<path d="M267.881 28.4815L263.73 33.1624L256.059 28.7169C256.059 28.7169 246.932 36.2491 255.609 39.2021C258.943 40.3389 263.013 35.0053 263.013 35.0053L270.009 39.3118C270.009 39.3118 273.941 39.2021 274.841 35.1872C275.928 30.3405 267.879 28.4815 267.879 28.4815H267.881Z" fill="white"/>
<path d="M241.024 191.921C238.361 193.972 239.02 201.149 239.02 201.149L232.315 204.113C232.315 204.113 230.019 207.536 231.813 211.099C233.98 215.398 239.893 209.837 239.893 209.837L239.662 203.043L246.853 199.603C246.853 199.603 247.952 186.587 241.024 191.921Z" fill="white"/>
<path d="M358.014 177.766C358.014 177.766 310.157 169.549 322.148 225.514C334.138 281.479 349.642 200.226 349.642 200.226L376.182 201.176L358.014 177.766Z" fill="white"/>
<path d="M313.578 246.364C325.318 215.122 295.181 217.155 295.181 217.155L293.913 257.574C293.913 257.574 301.839 277.606 313.578 246.364Z" fill="white"/>
<path d="M220.528 290.204C220.528 290.204 223.856 309.538 237.742 304.985C251.628 300.433 254.458 259.647 254.458 259.647L220.528 290.202V290.204Z" fill="white"/>
<path d="M217.385 153.029C217.385 153.029 210.072 170.271 222.577 179.571C235.081 188.872 257.75 161.468 257.75 161.468L217.385 153.032V153.029Z" fill="white"/>
<path d="M232.305 267.493C236.166 259.487 237.114 250.566 236.194 242.555C236.852 242.512 237.515 242.438 238.19 242.32C256.189 239.15 246.329 221.074 246.329 221.074L233.343 230.933C230.206 223.032 225.148 217.856 219.996 218.624C212.034 219.809 215.033 231.888 223.461 238.433L205.371 252.166C205.371 252.166 221.75 289.373 232.305 267.49V267.493Z" fill="white"/>
<path d="M379.726 280.436C369.056 270.079 347.108 302.094 347.108 302.094L384.329 304.295C384.329 304.295 390.397 290.79 379.726 280.433V280.436Z" fill="white"/>
<path d="M370.801 252.789C355.724 249.068 326.222 257.545 326.222 257.545C326.222 257.545 355.365 268.367 371.842 269.828C385.139 271.007 388.487 257.152 370.801 252.786V252.789Z" fill="white"/>
<path d="M350.669 27.8502C367.039 -27.1628 316.831 25.1246 316.831 25.1246L295.948 2.11578L299.668 36.1502C299.668 36.1502 334.3 82.8632 350.669 27.8502Z" fill="white"/>
<path d="M308.801 75.7803C314.703 62.7379 292.692 39.5686 292.692 39.5686L293.831 82.7348C293.831 82.7348 302.898 88.8227 308.801 75.7803Z" fill="white"/>
<path d="M380.316 42.0642L374.376 41.5961C374.376 41.5961 371.566 43.1555 371.755 46.3894C371.984 50.2919 378.173 48.5988 378.173 48.5988L380.187 43.6611L386.643 43.9767C386.643 43.9767 391.647 35.1097 384.777 36.2491C382.136 36.6878 380.316 42.0642 380.316 42.0642Z" fill="white"/>
<path d="M382.407 129.892C395.242 121.442 391.488 80.7929 391.488 80.7929L363.231 120.418C363.231 120.418 369.572 138.342 382.407 129.892Z" fill="white"/>
<path d="M363.221 66.8223L345.131 80.5548C345.131 80.5548 361.511 117.762 372.065 95.8789C375.927 87.8731 376.875 78.9526 375.955 70.9415C376.612 70.8987 377.275 70.8238 377.95 70.7062C395.949 67.5365 386.089 49.4601 386.089 49.4601L373.103 59.3195C369.966 51.418 364.908 46.2423 359.756 47.0099C351.794 48.1949 354.793 60.2744 363.221 66.8196V66.8223Z" fill="white"/>
<path d="M256.038 192.22C250.699 212.121 261.608 224.639 271.552 232.121C261.608 233.263 259.143 243.521 261.859 251.366C267.652 268.092 294.527 271.395 284.303 245.647C282.052 239.977 281.425 238.342 280.009 234.876L289.08 197.974C285.251 190.749 262.703 167.369 256.036 192.22H256.038Z" fill="white"/>
<path d="M167.935 14.1336L163.902 37.6132C163.902 37.6132 174.997 25.868 186.221 18.7664C202.282 8.60475 175.624 -15.1958 167.935 14.1336Z" fill="white"/>
<path d="M64.8894 120.431C55.2647 140.468 87.2614 141.715 82.229 111.366L76.4 88.5766C76.4 88.5766 71.6145 106.428 64.8894 120.431Z" fill="white"/>
<path d="M13.4339 297.25L30.7934 303.332C30.7934 303.332 22.3675 288.102 17.4048 272.832C10.3013 250.978 -8.17145 286.091 13.4359 297.247L13.4339 297.25Z" fill="white"/>
<path d="M79.7197 4.76118C64.2759 1.72793 34.4917 11.8307 34.4917 11.8307C34.4917 11.8307 64.4472 21.3852 81.2511 22.0485C94.8129 22.5835 97.8359 8.31869 79.7197 4.76118Z" fill="white"/>
<path d="M10.7515 65.5839C17.0803 71.7092 25.7033 73.0493 33.5835 68.7482C39.7112 65.402 45.3032 56.6553 46.5439 51.1693C49.0611 40.0501 39.5001 29.514 32.3628 28.0054C28.0612 27.0959 24.0823 30.3485 19.9859 32.7264C15.4354 35.3638 11.554 33.3202 10.2894 29.1154C7.90767 21.1979 15.75 16.1185 21.7702 19.5369C22.4851 15.76 16.5705 4.55789 10.3034 8.17692C7.60497 20.4142 7.27837 22.0138 3.27355 40.7402C1.47128 49.1632 5.33869 60.3466 10.7515 65.5866V65.5839Z" fill="white"/>
<path d="M36.7224 112.511C34.5995 86.9236 12.9165 76.4089 12.9165 76.4089L17.0866 126.687C17.8513 135.91 19.8269 142.271 22.6229 143.443C32.2774 147.492 37.8495 126.11 36.7204 112.508L36.7224 112.511Z" fill="white"/>
<path d="M2.7657 128.525C2.7657 128.525 8.68829 140.514 10.5842 128.763C11.313 124.248 7.20267 118.971 7.20267 118.971L10.162 109.429C10.162 109.429 9.94291 104.157 6.92386 103.087C3.2795 101.798 2.17822 112.666 2.17822 112.666L5.80666 118.072L2.7657 128.522V128.525Z" fill="white"/>
<path d="M162.761 268.295C155.104 277.28 166.348 294.939 175.911 300.794C193.902 311.809 212.036 292.382 212.036 292.382L176.682 270.737C170.198 266.768 164.978 265.695 162.759 268.295H162.761Z" fill="white"/>
<path d="M191.958 265.288L186.88 256.379C186.88 256.379 176.178 256.967 182.676 265.235C185.173 268.413 190.664 266.428 190.664 266.428L195.204 274.773C195.204 274.773 198.675 277.256 200.92 274.343C203.63 270.825 197.281 263.924 197.281 263.924L191.958 265.288Z" fill="white"/>
<path d="M138.414 275.322L140.023 268.373L148.266 266.548C148.266 266.548 152.916 253.589 144.426 257.398C141.164 258.861 139.884 266.302 139.884 266.302L132.264 267.755C132.264 267.755 129 270.7 129.859 274.731C130.894 279.599 138.414 275.322 138.414 275.322Z" fill="white"/>
<path d="M41.5215 289.528L38.3272 280.126C38.3272 280.126 35.3002 276.755 32.6635 279C29.4812 281.712 34.6629 290.188 34.6629 290.188L40.0817 290.293L43.7181 300.396C43.7181 300.396 54.2887 302.717 49.1647 292.858C47.1952 289.07 41.5195 289.528 41.5195 289.528H41.5215Z" fill="white"/>
<path d="M164.715 184.102C166.786 187.791 172.446 187.055 172.446 187.055L175.895 196.294C175.895 196.294 179.012 199.515 181.585 197.139C184.691 194.275 179.281 186.058 179.281 186.058L173.864 186.218L169.955 176.303C169.955 176.303 159.328 174.502 164.717 184.102H164.715Z" fill="white"/>
<path d="M140.564 169.391L133.355 165.777C133.355 165.777 129.44 166.267 128.759 170.359C127.937 175.3 136.064 176.372 136.064 176.372L139.951 171.301L147.841 174.989C147.841 174.989 156.538 166.59 147.726 164.485C144.338 163.677 140.566 169.391 140.566 169.391H140.564Z" fill="white"/>
<path d="M44.5286 77.5189C24.6339 129.263 77.4433 84.4922 77.4433 84.4922L96.2527 109.66L95.014 75.8846C95.014 75.8846 64.4252 25.7719 44.5286 77.5162V77.5189Z" fill="white"/>
<path d="M16.2717 193.783C26.6831 185.547 14.7284 148.979 14.7284 148.979L-0.356934 190.193C-0.356934 190.193 5.86039 202.018 16.2717 193.783Z" fill="white"/>
<path d="M102.343 113.538C83.4658 132.227 110.767 150.325 119.302 116.705L130.213 73.8384C130.213 73.8384 115.534 100.48 102.343 113.538Z" fill="white"/>
<path d="M125.599 205.204L158.334 180.735C158.334 180.735 131.474 188.053 113.361 185.654C87.4405 182.219 99.9448 224.42 125.599 205.204Z" fill="white"/>
<path d="M78.0088 217.399C78.0088 217.399 83.6566 234.79 85.9248 251.171C89.1729 274.613 113.07 246.011 93.8966 228.587L78.0088 217.396V217.399Z" fill="white"/>
<path d="M190.616 134.319C194.065 115.841 189.981 78.7547 189.981 78.7547C189.981 78.7547 180.82 114.258 178.842 134.602C177.247 151.02 186.571 155.993 190.618 134.319H190.616Z" fill="white"/>
<path d="M124.581 136.638C125.709 145.392 130.878 154.596 134.604 157.394C142.156 163.068 151.858 152.772 154.477 143.726C156.056 138.275 154.539 132.361 153.685 126.479C152.737 119.947 155.051 115.287 158.38 114.525C164.648 113.089 166.671 124.462 162.899 131.636C165.494 133.377 174.904 128.006 173.607 119.011C165.283 112.859 164.188 112.088 151.42 102.839C145.677 98.6767 136.717 101.368 131.753 107.351C125.948 114.348 123.134 125.379 124.581 136.638Z" fill="white"/>
<path d="M116.812 175.99C124.378 166.866 112.955 149.415 103.334 143.737C85.2319 133.051 67.2969 152.81 67.2969 152.81L102.868 173.804C109.392 177.656 114.622 178.632 116.814 175.99H116.812Z" fill="white"/>
<path d="M63.3541 183.581C66.7933 183.605 69.7885 177.113 69.7885 177.113L77.35 179.031C77.35 179.031 81.1457 177.653 81.2991 173.465C81.4843 168.409 73.3412 169.206 73.3412 169.206L70.1529 175.091L61.9103 173.256C61.9103 173.256 54.4025 183.517 63.3541 183.578V183.581Z" fill="white"/>
<path d="M151.149 71.2545C151.149 71.2545 155.076 71.4899 156.169 67.5606C157.488 62.8181 149.548 60.261 149.548 60.261L145.181 64.5701L137.743 59.4639C137.743 59.4639 128.271 66.1804 136.787 69.8877C140.059 71.3133 144.378 66.3462 144.378 66.3462L151.151 71.2545H151.149Z" fill="white"/>
<path d="M68.9241 35.0053L75.9201 39.3118C75.9201 39.3118 79.8513 39.2021 80.7514 35.1872C81.8387 30.3405 73.7893 28.4815 73.7893 28.4815L69.6391 33.1624L61.968 28.7169C61.968 28.7169 52.8411 36.2491 61.5179 39.2021C64.8516 40.3389 68.9222 35.0053 68.9222 35.0053H68.9241Z" fill="white"/>
<path d="M42.3541 192.967C40.283 188.714 34.4162 194.09 34.4162 194.09L34.5596 200.764L27.464 204.038C27.464 204.038 26.2233 216.805 33.0839 211.666C35.7206 209.692 35.163 202.631 35.163 202.631L41.7746 199.817C41.7746 199.817 44.0688 196.487 42.3541 192.964V192.967Z" fill="white"/>
<path d="M76.6809 215.748L103.221 216.698L85.053 193.288C85.053 193.288 37.1963 185.071 49.1868 241.036C61.1774 297.001 76.6809 215.748 76.6809 215.748Z" fill="white"/>
<path d="M124.422 257.689C142.092 231.974 112.698 222.82 112.698 222.82L103.221 261.223C103.221 261.223 106.752 283.405 124.422 257.689Z" fill="white"/>
<path d="M67.2312 301.369C81.1794 305.561 97.1807 270.689 97.1807 270.689L56.6805 277.868C56.6805 277.868 53.2811 297.178 67.2292 301.369H67.2312Z" fill="white"/>
<path d="M43.6245 135.822C30.3435 142.918 31.7574 183.838 31.7574 183.838L62.2008 147.251C62.2008 147.251 56.9075 128.726 43.6245 135.825V135.822Z" fill="white"/>
<path d="M24.0187 251.663C24.1302 252.532 24.2676 253.41 24.4369 254.295C28.9874 277.9 41.1333 262.539 41.1333 262.539L32.2554 246.436C37.708 241.287 40.9122 233.908 39.7134 227.135C37.8613 216.668 29.302 222.146 25.5004 234.183L13.1334 211.752C13.1334 211.752 -12.3493 238.15 5.11381 249.536C11.5024 253.701 18.2096 253.87 24.0167 251.66L24.0187 251.663Z" fill="white"/>
<path d="M108.643 286.211C94.3686 286.417 91.6384 301.586 110.796 304.298C127.13 306.612 158.125 294.302 158.125 294.302C158.125 294.302 126.332 285.954 108.643 286.211Z" fill="white"/>
<path d="M154.419 25.7344C170.789 -29.2786 120.581 23.0088 120.581 23.0088L99.6982 0L103.418 34.0344C103.418 34.0344 138.05 80.7474 154.419 25.7344Z" fill="white"/>
<path d="M90.2285 44.6106L103.33 84.0562C103.33 84.0562 113.435 85.1341 115.269 70.0722C117.103 55.0103 90.2285 44.6106 90.2285 44.6106Z" fill="white"/>
<path d="M188.943 28.7677C186.422 29.9071 185.442 35.666 185.442 35.666L179.551 36.8082C179.551 36.8082 177.032 39.0925 177.699 42.2086C178.506 45.9694 184.317 42.6446 184.317 42.6446L185.552 37.2656L191.924 35.8345C191.924 35.8345 195.503 25.7986 188.941 28.7677H188.943Z" fill="white"/>
<path d="M169.132 66.8223L151.042 80.5548C151.042 80.5548 167.421 117.762 177.976 95.8789C181.837 87.8731 182.785 78.9526 181.865 70.9415C182.522 70.8987 183.186 70.8238 183.861 70.7062C201.859 67.5365 192 49.4601 192 49.4601L179.014 59.3195C175.877 51.418 170.819 46.2423 165.667 47.0099C157.705 48.1949 160.704 60.2744 169.132 66.8196V66.8223Z" fill="white"/>
<path d="M193.049 210.067C188.242 212.964 186.858 213.766 183.915 215.593L154.409 199.434C148.212 204.541 127.391 236.058 147.218 247.766C163.096 257.141 174.155 241.983 181.023 227.87C181.21 242.63 189.417 247.038 196.039 243.62C210.156 236.328 214.88 196.917 193.048 210.067H193.049Z" fill="white"/>
<path d="M137.637 93.3164C141.502 98.2327 145.575 88.5392 142.173 81.4776C142.173 81.4776 133.771 88.4028 137.637 93.3164Z" fill="white"/>
<path d="M128.463 222.376C132.328 227.293 136.4 217.599 132.999 210.538C132.999 210.538 124.597 217.463 128.463 222.376Z" fill="white"/>
<path d="M265.544 264.572C265.544 264.572 257.143 271.497 261.008 276.41C264.873 281.327 268.946 271.633 265.544 264.572Z" fill="white"/>
<path d="M49.7799 123.462C53.6453 128.378 57.7179 118.684 54.3164 111.623C54.3164 111.623 45.9145 118.548 49.7799 123.462Z" fill="white"/>
<path d="M280.463 76.5078C284.328 81.4242 288.4 71.7306 284.999 64.6691C284.999 64.6691 276.597 71.5942 280.463 76.5078Z" fill="white"/>
</g>
<defs>
<clipPath id="clip0_207_20">
<rect width="393" height="308" fill="white" transform="translate(-1)"/>
</clipPath>
</defs>
</svg>
