<svg width="393" height="60" viewBox="0 0 393 60" fill="none" xmlns="http://www.w3.org/2000/svg">
<g clip-path="url(#clip0_111_387)">
<path d="M44.4559 54.6989L61.7091 45.1435C61.7091 45.1435 45.7807 43.4982 32.522 39.3089C13.5485 33.3107 20.7758 64.7587 44.4559 54.6989Z" fill="#D7DEBD"/>
<path d="M134.436 41.3778L117.167 50.9108C117.167 50.9108 133.093 52.5762 146.343 56.7835C165.307 62.8063 158.132 31.3494 134.436 41.3778Z" fill="#D7DEBD"/>
<path d="M253.325 42.373L236.056 51.906C236.056 51.906 251.982 53.5714 265.232 57.7787C284.196 63.8015 277.021 32.3446 253.325 42.373Z" fill="#D7DEBD"/>
<path d="M369.63 11.6849L365.052 29.2088C365.052 29.2088 377.646 20.4423 390.387 15.1435C408.619 7.56053 378.358 -10.2032 369.63 11.6849Z" fill="#D7DEBD"/>
<path d="M272.773 3.14929C257.204 -0.4707 225.809 3.29499 225.809 3.29499C225.809 3.29499 255.687 12.7922 272.855 14.9529C286.708 16.6968 291.035 7.39466 272.773 3.14705V3.14929Z" fill="#D7DEBD"/>
<path d="M230.845 17.4275C226.087 10.4005 217.505 5.62389 208.011 5.04559C200.625 4.59505 192.184 8.0828 189.25 11.2859C183.302 17.775 190.106 29.267 197.09 33.4945C201.299 36.0408 206.417 35.5947 211.395 35.801C216.922 36.0296 220.354 39.1654 220.413 42.6128C220.523 49.0997 210.834 49.0705 205.587 44.0362C203.713 46.3023 206.521 56.6199 214.132 56.9471C220.605 49.7744 221.425 48.824 231.2 37.7914C235.597 32.8288 234.917 23.4392 230.848 17.4298L230.845 17.4275Z" fill="#D7DEBD"/>
<path d="M262.076 23.159L256.318 24.3559L249.837 17.7032C249.837 17.7032 238.052 18.4631 246.041 24.5846C249.111 26.9381 254.993 25.2615 254.993 25.2615L260.824 31.4995C260.824 31.4995 264.904 33.2927 267.106 31.0042C269.764 28.2404 262.074 23.159 262.074 23.159H262.076Z" fill="#D7DEBD"/>
<path d="M372.295 46.1499C354.968 45.4371 322.491 55.7188 322.491 55.7188C322.491 55.7188 356.315 59.7848 375.015 58.6327C390.105 57.7025 392.623 46.9837 372.298 46.1477L372.295 46.1499Z" fill="#D7DEBD"/>
<path d="M356.928 19.2073C375.51 -21.8522 318.515 17.172 318.515 17.172L294.81 0L299.033 25.4027C299.033 25.4027 338.345 60.2667 356.928 19.2073Z" fill="#D7DEBD"/>
<path d="M308.631 46.4144C308.846 34.6309 278.386 33.7702 278.386 33.7702L297.297 60C297.297 60 308.417 58.1978 308.631 46.4144Z" fill="#D7DEBD"/>
<path d="M377.018 35.3885L370.274 35.0389C370.274 35.0389 367.085 36.2022 367.299 38.6163C367.559 41.5279 374.585 40.266 374.585 40.266L376.871 36.581L384.2 36.8163C384.2 36.8163 389.881 30.1995 382.082 31.049C379.084 31.3763 377.018 35.3885 377.018 35.3885Z" fill="#D7DEBD"/>
<path d="M151.425 10.5484L146.847 28.0723C146.847 28.0723 159.441 19.3059 172.182 14.007C190.414 6.42409 160.153 -11.3397 151.425 10.5484Z" fill="#D7DEBD"/>
<path d="M49.5921 6.69306C32.0609 4.42916 -1.74915 11.9695 -1.74915 11.9695C-1.74915 11.9695 32.2553 19.0997 51.3305 19.595C66.7255 19.994 70.1571 9.34698 49.5921 6.69306Z" fill="#D7DEBD"/>
<path d="M-27.0027 51.7379C-19.8184 56.3105 -10.0298 57.3102 -1.0845 54.0982C5.87147 51.6012 12.2193 45.074 13.6277 40.9788C16.4851 32.6786 5.63185 24.8154 -2.47027 23.6902C-7.35324 23.011 -11.87 25.4408 -16.5201 27.2138C-21.6857 29.1818 -26.0916 27.6576 -27.5271 24.5173C-30.2309 18.6088 -21.3285 14.8162 -14.4946 17.3692C-13.683 14.5517 -20.3971 6.19096 -27.5113 8.89195C-30.5745 18.0237 -30.9452 19.2185 -35.4914 33.1963C-37.5372 39.4837 -33.1471 47.8287 -27.0027 51.7401V51.7379Z" fill="#D7DEBD"/>
<path d="M178.695 48.8867L172.93 42.2363C172.93 42.2363 160.781 42.6756 168.158 48.8464C170.993 51.2179 177.225 49.7363 177.225 49.7363L182.379 55.9653C182.379 55.9653 186.32 57.8191 188.867 55.6426C191.944 53.0178 184.737 47.8669 184.737 47.8669L178.695 48.8845V48.8867Z" fill="#D7DEBD"/>
<path d="M49.1355 29.7086L54.5362 35.7718C54.5362 35.7718 58.5465 37.5 61.0061 35.2473C63.9766 32.5284 56.5685 27.6061 56.5685 27.6061L50.571 28.812L44.5442 22.3453C44.5442 22.3453 32.4204 23.1635 40.0387 29.1012C42.9662 31.383 49.1355 29.7064 49.1355 29.7064V29.7086Z" fill="#D7DEBD"/>
<path d="M136.082 19.2073C154.664 -21.8522 97.6691 17.172 97.6691 17.172L73.9663 0L78.1892 25.4027C78.1892 25.4027 117.502 60.2667 136.084 19.2073H136.082Z" fill="#D7DEBD"/>
<path d="M103.92 52.8205L74.163 38.2016C74.163 38.2016 64.5168 44.4083 69.6846 54.6272C74.8524 64.8439 103.92 52.8205 103.92 52.8205Z" fill="#D7DEBD"/>
<path d="M175.272 21.4689C172.41 22.3207 171.298 26.6176 171.298 26.6176L164.611 27.4716C164.611 27.4716 161.751 29.1774 162.509 31.5018C163.424 34.3081 170.021 31.8268 170.021 31.8268L171.422 27.8123L178.656 26.7431C178.656 26.7431 182.719 19.2543 175.27 21.4689H175.272Z" fill="#D7DEBD"/>
</g>
<defs>
<clipPath id="clip0_111_387">
<rect width="441" height="60" fill="white" transform="translate(-36)"/>
</clipPath>
</defs>
</svg>
